<?xml version="1.0" encoding="UTF-8" standalone="no"?>
<!-- Created with Inkscape (http://www.inkscape.org/) -->

<svg
   width="151.27046mm"
   height="72.001762mm"
   viewBox="0 0 151.27046 72.001762"
   version="1.1"
   id="svg5"
   inkscape:version="1.1.2 (0a00cf5339, 2022-02-04)"
   sodipodi:docname="logo.svg"
   inkscape:export-filename="/home/altravia/Progetti/relaxing-clock-svelte/docs/logo.png"
   inkscape:export-xdpi="96"
   inkscape:export-ydpi="96"
   xmlns:inkscape="http://www.inkscape.org/namespaces/inkscape"
   xmlns:sodipodi="http://sodipodi.sourceforge.net/DTD/sodipodi-0.dtd"
   xmlns="http://www.w3.org/2000/svg"
   xmlns:svg="http://www.w3.org/2000/svg">
  <sodipodi:namedview
     id="namedview7"
     pagecolor="#ffffff"
     bordercolor="#666666"
     borderopacity="1.0"
     inkscape:pageshadow="2"
     inkscape:pageopacity="1"
     inkscape:pagecheckerboard="0"
     inkscape:document-units="mm"
     showgrid="false"
     units="mm"
     inkscape:zoom="0.90509668"
     inkscape:cx="277.87087"
     inkscape:cy="-64.633979"
     inkscape:window-width="1920"
     inkscape:window-height="1011"
     inkscape:window-x="0"
     inkscape:window-y="32"
     inkscape:window-maximized="1"
     inkscape:current-layer="layer2"
     inkscape:snap-page="true" />
  <defs
     id="defs2">
    <rect
       x="271.56693"
       y="483.94339"
       width="1945.3892"
       height="1290.5059"
       id="rect14591" />
  </defs>
  <g
     inkscape:label="Livello 1"
     inkscape:groupmode="layer"
     id="layer1"
     transform="translate(-74.109716,-132.7753)">
    <g
       aria-label="Relaxing Clock"
       transform="matrix(0.26458333,0,0,0.26458333,-3.7819611e-7,0.35277438)"
       id="text14589"
       style="font-size:40px;line-height:1.25;white-space:pre;shape-inside:url(#rect14591)"
       inkscape:export-filename="/home/altravia/Progetti/relaxing-clock-svelte/logo.png"
       inkscape:export-xdpi="96"
       inkscape:export-ydpi="96">
      <path
         d="m 291.83302,605.96098 q -2.93332,0 -4.93332,-1.99999 -1.99999,-2 -1.99999,-4.93332 v -90.26644 q 0,-3.06666 1.99999,-4.93332 2,-1.99999 4.93332,-1.99999 h 23.99994 q 9.99997,0 17.73329,4.26665 7.73331,4.13333 11.99997,11.46664 4.39999,7.33332 4.39999,17.06662 0,9.06665 -4.39999,16.1333 -4.26666,7.06664 -11.99997,11.06663 -7.73332,3.99999 -17.73329,3.99999 h -17.06662 v 33.19992 q 0,2.93332 -2,4.93332 -1.86666,1.99999 -4.93332,1.99999 z m 55.33319,0 q -1.86666,0 -3.46665,-0.79999 -1.46667,-0.8 -2.53333,-2.53333 l -23.99994,-38.66657 13.46663,-3.86665 21.86661,35.19991 q 2.4,3.86665 0.66667,7.33331 -1.73333,3.33332 -5.99999,3.33332 z m -48.39987,-52.93319 h 17.06662 q 6.13332,0 10.79997,-2.26666 4.66666,-2.4 7.33332,-6.53332 2.66666,-4.26666 2.66666,-9.59998 0,-5.86665 -2.66666,-10.39997 -2.66666,-4.53332 -7.33332,-7.06665 -4.66665,-2.53333 -10.79997,-2.53333 h -17.06662 z"
         style="font-size:133.333px;font-family:Comfortaa;-inkscape-font-specification:'Comfortaa, Normal'"
         id="path22609" />
      <path
         d="m 402.0994,606.49432 q -11.06663,0 -19.73328,-4.66666 -8.53331,-4.79999 -13.46663,-13.06663 -4.79999,-8.39998 -4.79999,-19.19995 0,-10.93331 4.53332,-19.19995 4.66666,-8.39998 12.79997,-13.06664 8.13331,-4.79998 18.66662,-4.79998 10.39997,0 17.86662,4.66665 7.46665,4.53332 11.3333,12.66663 3.99999,7.99998 3.99999,18.53329 0,2.53333 -1.73333,4.26666 -1.73332,1.59999 -4.39998,1.59999 h -53.7332 v -10.66664 h 53.3332 l -5.46666,3.73333 q -0.13333,-6.66665 -2.66666,-11.86664 -2.53332,-5.33332 -7.19998,-8.39998 -4.66665,-3.06666 -11.3333,-3.06666 -7.59998,0 -13.06663,3.33333 -5.33332,3.33332 -8.13332,9.19997 -2.79999,5.73332 -2.79999,13.06664 0,7.33331 3.33332,13.06663 3.33333,5.73332 9.19998,9.06664 5.86665,3.33333 13.46663,3.33333 4.13333,0 8.39998,-1.46666 4.39999,-1.6 7.06665,-3.59999 2,-1.46667 4.26666,-1.46667 2.39999,-0.13333 4.13332,1.33333 2.26666,2 2.39999,4.39999 0.13334,2.4 -2.13332,4.13332 -4.53333,3.59999 -11.33331,5.86666 -6.66665,2.26666 -12.79997,2.26666 z"
         style="font-size:133.333px;font-family:Comfortaa;-inkscape-font-specification:'Comfortaa, Normal'"
         id="path22611" />
      <path
         d="m 467.96569,605.96098 q -5.86665,0 -10.39997,-3.19999 -4.53333,-3.19999 -7.06665,-8.66664 -2.53333,-5.59999 -2.53333,-12.79997 v -72.79981 q 0,-2.93333 1.86666,-4.79999 1.86666,-1.86666 4.79999,-1.86666 2.93333,0 4.79999,1.86666 1.86666,1.86666 1.86666,4.79999 v 72.79981 q 0,4.93332 1.86666,8.13331 1.86666,3.2 4.79999,3.2 h 3.33332 q 2.66666,0 4.26666,1.86666 1.73333,1.86666 1.73333,4.79999 0,2.93332 -2.53333,4.79998 -2.53332,1.86666 -6.53331,1.86666 z"
         style="font-size:133.333px;font-family:Comfortaa;-inkscape-font-specification:'Comfortaa, Normal'"
         id="path22613" />
      <path
         d="m 517.03203,606.49432 q -9.73331,0 -17.46662,-4.79999 -7.73331,-4.93332 -12.26663,-13.19997 -4.39999,-8.39998 -4.39999,-18.93328 0,-10.53331 4.79998,-18.93329 4.93333,-8.39998 13.19997,-13.19996 8.39998,-4.93332 18.79995,-4.93332 10.39998,0 18.66662,4.93332 8.26665,4.79998 13.06663,13.19996 4.93333,8.39998 4.93333,18.93329 h -5.19999 q 0,10.5333 -4.53332,18.93328 -4.39999,8.26665 -12.13331,13.19997 -7.73331,4.79999 -17.46662,4.79999 z m 2.66666,-11.99997 q 6.79999,0 12.1333,-3.19999 5.33332,-3.33333 8.39998,-8.93331 3.06666,-5.73332 3.06666,-12.79997 0,-7.19998 -3.06666,-12.79997 -3.06666,-5.73332 -8.39998,-8.93331 -5.33331,-3.33332 -12.1333,-3.33332 -6.66665,0 -12.1333,3.33332 -5.33332,3.19999 -8.53331,8.93331 -3.06666,5.59999 -3.06666,12.79997 0,7.06665 3.06666,12.79997 3.19999,5.59998 8.53331,8.93331 5.46665,3.19999 12.1333,3.19999 z m 29.86659,11.59997 q -2.93332,0 -4.93332,-1.86666 -1.86666,-2 -1.86666,-4.93332 v -20.39995 l 2.53333,-14.1333 11.06664,4.79999 v 29.73326 q 0,2.93332 -2,4.93332 -1.86666,1.86666 -4.79999,1.86666 z"
         style="font-size:133.333px;font-family:Comfortaa;-inkscape-font-specification:'Comfortaa, Normal'"
         id="path22615" />
      <path
         d="m 627.83164,605.96098 q -1.33333,0 -2.53332,-0.39999 -1.2,-0.4 -2.26666,-1.73333 l -23.33328,-27.99993 -4.79999,-4.79999 -23.19994,-27.4666 q -1.73332,-2.13332 -1.86666,-4.53332 -0.13333,-2.53332 1.33333,-4.26665 1.46666,-1.73333 4.39999,-1.73333 3.19999,0 5.06665,2.26666 l 22.79995,27.19993 3.46665,3.19999 25.06661,29.99992 q 1.99999,2.4 1.86666,4.79999 0,2.26666 -1.73333,3.86666 -1.6,1.59999 -4.26666,1.59999 z m -50.9332,0 q -2.66666,0 -4.26666,-1.59999 -1.46666,-1.73333 -1.46666,-4.13332 0,-2.4 1.86666,-4.79999 l 22.66661,-28.39993 7.19998,10.13331 -21.19994,26.6666 q -2,2.13332 -4.79999,2.13332 z m 32.93325,-34.26657 -9.19998,-7.86665 21.46662,-28.53326 q 1.06666,-1.33333 2.26666,-1.73333 1.19999,-0.53333 2.66666,-0.53333 2.93332,0 4.39998,1.86666 1.46667,1.73333 1.33333,4.26666 0,2.53332 -1.86666,4.93332 z"
         style="font-size:133.333px;font-family:Comfortaa;-inkscape-font-specification:'Comfortaa, Normal'"
         id="path22617" />
      <path
         d="m 659.03148,605.96098 q -2.93333,0 -4.93333,-1.86666 -1.86666,-1.99999 -1.86666,-4.93332 v -59.33318 q 0,-3.06666 1.86666,-4.93332 2,-1.86666 4.93333,-1.86666 3.06665,0 4.93332,1.86666 1.86666,1.86666 1.86666,4.93332 V 599.161 q 0,2.93333 -1.86666,4.93332 -1.86667,1.86666 -4.93332,1.86666 z m 0,-84.79978 q -3.6,0 -6.26666,-2.53333 -2.53332,-2.66666 -2.53332,-6.26665 0,-3.59999 2.53332,-6.13331 2.66666,-2.66666 6.26666,-2.66666 3.59999,0 6.13331,2.66666 2.66666,2.53332 2.66666,6.13331 0,3.59999 -2.66666,6.26665 -2.53332,2.53333 -6.13331,2.53333 z"
         style="font-size:133.333px;font-family:Comfortaa;-inkscape-font-specification:'Comfortaa, Normal'"
         id="path22619" />
      <path
         d="m 752.7643,606.09432 q -2.93332,0 -4.93332,-1.86666 -1.86666,-2 -1.86666,-4.93332 v -32.79992 q 0,-7.59998 -2.79999,-12.39997 -2.8,-4.79999 -7.59998,-7.06665 -4.66666,-2.39999 -10.79998,-2.39999 -5.59998,0 -10.1333,2.26666 -4.53333,2.26666 -7.19999,6.13332 -2.66666,3.73332 -2.66666,8.66664 h -8.39997 q 0,-8.39998 3.99999,-14.93329 4.13332,-6.66665 11.19997,-10.53331 7.06665,-3.86666 15.86662,-3.86666 9.19998,0 16.39996,3.99999 7.33332,3.86666 11.46664,11.46664 4.26665,7.59998 4.26665,18.66662 v 32.79992 q 0,2.93332 -1.99999,4.93332 -1.86666,1.86666 -4.79999,1.86666 z m -54.79986,0 q -2.93332,0 -4.93332,-1.86666 -1.86666,-2 -1.86666,-4.93332 v -59.46652 q 0,-3.06666 1.86666,-4.93332 2,-1.86666 4.93332,-1.86666 3.06666,0 4.93332,1.86666 1.86666,1.86666 1.86666,4.93332 v 59.46652 q 0,2.93332 -1.86666,4.93332 -1.86666,1.86666 -4.93332,1.86666 z"
         style="font-size:133.333px;font-family:Comfortaa;-inkscape-font-specification:'Comfortaa, Normal'"
         id="path22621" />
      <path
         d="m 812.4974,606.49432 q -9.99998,0 -17.73329,-4.66666 -7.59998,-4.79999 -11.99997,-13.06663 -4.39999,-8.39998 -4.39999,-19.19995 0,-10.93331 4.66665,-19.19995 4.79999,-8.39998 13.06664,-13.06664 8.26664,-4.79998 19.06662,-4.79998 10.66663,0 18.93328,4.79998 8.26665,4.66666 12.9333,13.06664 4.79999,8.26664 4.79999,19.19995 h -7.86665 q 0,10.79997 -4.13332,19.19995 -3.99999,8.26664 -11.06664,13.06663 -7.06665,4.66666 -16.26662,4.66666 z m 2.39999,29.73325 q -9.46664,0 -17.73329,-3.73332 -8.26664,-3.73332 -13.99996,-10.93331 -1.73333,-2.26666 -1.33333,-4.66665 0.53333,-2.39999 2.66666,-3.86666 2.39999,-1.59999 4.93332,-1.06666 2.66666,0.53333 4.26665,2.66666 3.59999,4.53332 9.06665,7.06665 5.46665,2.53332 12.39997,2.53332 6.39998,0 11.7333,-3.06665 5.46665,-3.06666 8.66664,-9.06665 3.19999,-5.99998 3.19999,-14.66663 v -18.93328 l 4.39999,-11.73331 8.66665,2.8 V 598.361 q 0,10.53331 -4.66666,19.06662 -4.66665,8.66665 -13.06663,13.7333 -8.26665,5.06665 -19.19995,5.06665 z m 0.26667,-41.73322 q 6.93331,0 12.26663,-3.19999 5.33332,-3.2 8.26665,-8.79998 3.06665,-5.59999 3.06665,-12.9333 0,-7.33332 -3.06665,-12.9333 -2.93333,-5.73332 -8.26665,-8.93331 -5.33332,-3.19999 -12.26663,-3.19999 -6.93332,0 -12.26664,3.19999 -5.33332,3.19999 -8.39998,8.93331 -3.06666,5.59998 -3.06666,12.9333 0,7.33331 3.06666,12.9333 3.06666,5.59998 8.39998,8.79998 5.33332,3.19999 12.26664,3.19999 z"
         style="font-size:133.333px;font-family:Comfortaa;-inkscape-font-specification:'Comfortaa, Normal'"
         id="path22623" />
      <path
         d="m 331.56625,773.96057 q -10.79997,0 -20.26661,-3.99999 -9.33331,-4.13332 -16.39996,-11.3333 -6.93332,-7.33331 -10.93331,-17.06662 -3.86665,-9.73331 -3.86665,-21.06662 0,-11.19997 3.86665,-20.79994 3.99999,-9.73331 10.93331,-16.93329 7.06665,-7.33332 16.39996,-11.46664 9.33331,-4.13332 20.26661,-4.13332 10.26664,0 17.59996,2.66666 7.46665,2.66666 14.93329,8.79997 1.06667,0.8 1.6,1.73333 0.66666,0.8 0.8,1.73333 0.26666,0.8 0.26666,2 0,2.53332 -1.86666,4.26665 -1.73333,1.6 -4.26665,1.86667 -2.53333,0.13333 -4.93333,-1.73333 -4.93332,-4.26666 -10.26664,-6.53332 -5.19998,-2.26666 -13.86663,-2.26666 -7.86664,0 -14.79996,3.19999 -6.93331,3.19999 -12.26663,8.79998 -5.19999,5.59998 -8.13332,13.06663 -2.93332,7.33332 -2.93332,15.73329 0,8.53332 2.93332,15.99996 2.93333,7.33332 8.13332,12.9333 5.33332,5.59999 12.26663,8.79998 6.93332,3.06666 14.79996,3.06666 6.79999,0 12.79997,-2.26666 6.13332,-2.39999 11.7333,-6.53332 2.4,-1.73333 4.66666,-1.46666 2.39999,0.13333 3.99999,1.86666 1.59999,1.6 1.59999,4.53332 0,1.33333 -0.53333,2.66666 -0.53333,1.2 -1.59999,2.26666 -7.19999,5.73332 -15.46663,8.66665 -8.13331,2.93332 -17.19996,2.93332 z"
         style="font-size:133.333px;font-family:Comfortaa;-inkscape-font-specification:'Comfortaa, Normal'"
         id="path22625" />
      <path
         d="m 404.49921,772.62724 q -5.86666,0 -10.39998,-3.19999 -4.53332,-3.19999 -7.06665,-8.66664 -2.53332,-5.59999 -2.53332,-12.79997 v -72.79981 q 0,-2.93333 1.86666,-4.79999 1.86666,-1.86666 4.79999,-1.86666 2.93332,0 4.79998,1.86666 1.86667,1.86666 1.86667,4.79999 v 72.79981 q 0,4.93332 1.86666,8.13331 1.86666,3.2 4.79999,3.2 h 3.33332 q 2.66666,0 4.26666,1.86666 1.73332,1.86666 1.73332,4.79998 0,2.93333 -2.53332,4.79999 -2.53333,1.86666 -6.53332,1.86666 z"
         style="font-size:133.333px;font-family:Comfortaa;-inkscape-font-specification:'Comfortaa, Normal'"
         id="path22627" />
      <path
         d="m 456.23222,773.16058 q -10.79998,0 -19.06662,-4.66666 -8.26665,-4.79999 -13.06664,-13.06663 -4.66665,-8.39998 -4.66665,-19.19995 0,-10.93331 4.66665,-19.19995 4.79999,-8.39998 13.06664,-13.06664 8.26664,-4.79998 19.06662,-4.79998 10.66664,0 18.93328,4.79998 8.26665,4.66666 12.9333,13.06664 4.79999,8.26664 4.79999,19.19995 0,10.79997 -4.66666,19.19995 -4.66665,8.26664 -12.9333,13.06663 -8.26664,4.66666 -19.06661,4.66666 z m 0,-11.99997 q 6.93331,0 12.26663,-3.19999 5.33332,-3.2 8.26665,-8.79998 3.06666,-5.59999 3.06666,-12.9333 0,-7.33332 -3.06666,-12.9333 -2.93333,-5.73332 -8.26665,-8.93331 -5.33332,-3.2 -12.26663,-3.2 -6.93332,0 -12.26664,3.2 -5.33332,3.19999 -8.39998,8.93331 -3.06666,5.59998 -3.06666,12.9333 0,7.33331 3.06666,12.9333 3.06666,5.59998 8.39998,8.79998 5.33332,3.19999 12.26664,3.19999 z"
         style="font-size:133.333px;font-family:Comfortaa;-inkscape-font-specification:'Comfortaa, Normal'"
         id="path22629" />
      <path
         d="m 546.23188,773.16058 q -10.66664,0 -19.06662,-4.79999 -8.26664,-4.93332 -13.06663,-13.19997 -4.66666,-8.39998 -4.66666,-18.93328 0,-10.79997 4.66666,-19.19995 4.66665,-8.39998 12.79997,-13.06664 8.13331,-4.79998 18.66662,-4.79998 7.86664,0 14.39996,3.06665 6.53332,2.93333 11.7333,8.93331 1.86666,2.13333 1.33333,4.39999 -0.53333,2.26666 -2.93332,3.99999 -1.86667,1.33333 -4.13333,0.93333 -2.26666,-0.53333 -4.13332,-2.39999 -6.53332,-6.93332 -16.26662,-6.93332 -6.79999,0 -11.99997,3.2 -5.19999,3.06666 -8.13332,8.66664 -2.93332,5.59999 -2.93332,13.19997 0,7.19998 2.93332,12.79996 3.06666,5.59999 8.39998,8.93332 5.33332,3.19999 12.39997,3.19999 4.66666,0 8.13331,-1.06667 3.59999,-1.19999 6.53332,-3.59999 2.13333,-1.73333 4.39999,-1.86666 2.26666,-0.26667 3.99999,1.2 2.26666,1.86666 2.53333,4.26665 0.26666,2.26666 -1.6,4.13333 -9.59998,8.93331 -23.99994,8.93331 z"
         style="font-size:133.333px;font-family:Comfortaa;-inkscape-font-specification:'Comfortaa, Normal'"
         id="path22631" />
      <path
         d="m 606.09837,745.96065 -8.26665,-9.06665 40.93323,-36.53324 q 2,-1.86666 4.39999,-1.73333 2.53333,0.13334 4.26666,2.13333 1.86666,2 1.73332,4.39999 -0.13333,2.39999 -2.13332,4.26666 z m -6.26665,26.66659 q -2.93333,0 -4.79999,-1.73332 -1.73333,-1.86667 -1.73333,-4.79999 v -91.06644 q 0,-2.93332 1.73333,-4.66665 1.86666,-1.86666 4.79999,-1.86666 2.93332,0 4.66665,1.86666 1.86666,1.73333 1.86666,4.66665 v 91.06644 q 0,2.93332 -1.86666,4.79999 -1.73333,1.73332 -4.66665,1.73332 z m 47.59988,-0.66666 q -2.13333,1.73333 -4.79999,1.46666 -2.53333,-0.13333 -4.26666,-2.26666 l -27.0666,-33.46658 9.33331,-8.79998 27.73327,34.13325 q 1.73333,2.13333 1.46666,4.66665 -0.13333,2.4 -2.39999,4.26666 z"
         style="font-size:133.333px;font-family:Comfortaa;-inkscape-font-specification:'Comfortaa, Normal'"
         id="path22633" />
    </g>
  </g>
  <g
     inkscape:groupmode="layer"
     id="layer2"
     inkscape:label="Livello 2">
    <rect
       style="fill:#ffffff;fill-opacity:0.0156863;stroke-width:0.410104;stroke-opacity:0"
       id="rect48356"
       width="151.27046"
       height="72.001762"
       x="0"
       y="0" />
  </g>
</svg>
