<?xml version="1.0" encoding="utf-8"?><svg xmlns="http://www.w3.org/2000/svg" xmlns:xlink="http://www.w3.org/1999/xlink" width="1920" height="1080" preserveAspectRatio="xMidYMid" viewBox="0 0 1920 1080" style="z-index:1;margin-right:-2px;display:block;background-repeat-y:initial;background-repeat-x:initial;animation-play-state:paused" ><g transform="translate(960,540) scale(1,1) translate(-960,-540)" style="transform:matrix(1, 0, 0, 1, 0, 0);animation-play-state:paused" ><path id="path0" d="M 1581.6715357305354 1070.970266517531
c 0 30.378781935652583 -7.433106218297971 8.72582034321936 -16.15892656151733 8.72582034321936
S 1549.3536826075008 1101.3490484531835 1549.3536826075008 1070.970266517531
s 7.433106218297971 -8.72582034321936 16.15892656151733 -8.72582034321936
S 1581.6715357305354 1040.5914845818784 1581.6715357305354 1070.970266517531
z" fill="none" stroke="none" style="animation-play-state:paused" ></path>


<circle cx="0" cy="0" r="1.99848600126891" fill="#e7e7e7" transform="translate(1549.483154296875 1077.0924072265625)" style="animation-play-state:paused" ></circle>
<path id="path1" d="M 842.6227337021036 979.7849784485076
c 0 36.538843681295134 -8.940355368827532 10.495199780797538 -19.43555514962507 10.495199780797538
S 803.7516234028534 1016.3238221298027 803.7516234028534 979.7849784485076
s 8.940355368827532 -10.495199780797538 19.43555514962507 -10.495199780797538
S 842.6227337021036 943.2461347672124 842.6227337021036 979.7849784485076
z" fill="none" stroke="none" style="animation-play-state:paused" ></path>


<circle cx="0" cy="0" r="1.2686263505424429" fill="#ffffff" transform="translate(803.9515380859375 971.5859375)" style="animation-play-state:paused" ></circle>
<path id="path2" d="M 133.57010388606147 497.0726496156681
c 0 19.384838581579803 -4.743098801875909 5.567985550028241 -10.31108435190415 5.567985550028241
S 112.94793518225316 516.4574881972479 112.94793518225316 497.0726496156681
s 4.743098801875909 -5.567985550028241 10.31108435190415 -5.567985550028241
S 133.57010388606147 477.6878110340883 133.57010388606147 497.0726496156681
z" fill="none" stroke="none" style="animation-play-state:paused" ></path>


<circle cx="0" cy="0" r="1.2800906438033064" fill="#ebebeb" transform="translate(125.41585540771484 490.8883361816406)" style="animation-play-state:paused" ></circle>
<path id="path3" d="M 134.8583655299798 521.209698932473
c 0 28.259620691342143 -6.914588041498608 8.11712509219402 -15.031713133692628 8.11712509219402
S 104.79493926259454 549.4693196238151 104.79493926259454 521.209698932473
s 6.914588041498608 -8.11712509219402 15.031713133692628 -8.11712509219402
S 134.8583655299798 492.9500782411308 134.8583655299798 521.209698932473
z" fill="none" stroke="none" style="animation-play-state:paused" ></path>


<circle cx="0" cy="0" r="1.9055265592405615" fill="#e7e7e7" transform="translate(105.5671615600586 509.5690612792969)" style="animation-play-state:paused" ></circle>
<path id="path4" d="M 1372.9844230163656 701.5769586166728
c 0 19.81973351652051 -4.84950926468055 5.6929021802771675 -10.542411444957718 5.6929021802771675
S 1351.8996001264502 721.3966921331933 1351.8996001264502 701.5769586166728
s 4.84950926468055 -5.6929021802771675 10.542411444957718 -5.6929021802771675
S 1372.9844230163656 681.7572251001523 1372.9844230163656 701.5769586166728
z" fill="none" stroke="none" style="animation-play-state:paused" ></path>


<circle cx="0" cy="0" r="1.8162755592802646" fill="#f0f0f0" transform="translate(1368.2459716796875 692.4882202148438)" style="animation-play-state:paused" ></circle>
<path id="path5" d="M 549.5283671089567 73.59442616873844
c 0 19.87692200498372 -4.863502192708782 5.709328661005961 -10.572830853714743 5.709328661005961
S 528.3827054015271 93.47134817372216 528.3827054015271 73.59442616873844
s 4.863502192708782 -5.709328661005961 10.572830853714743 -5.709328661005961
S 549.5283671089567 53.71750416375472 549.5283671089567 73.59442616873844
z" fill="none" stroke="none" style="animation-play-state:paused" ></path>


<circle cx="0" cy="0" r="1.113052306031069" fill="#f8f8f8" transform="translate(541.8506469726562 80.34534454345703)" style="animation-play-state:paused" ></circle>
<path id="path6" d="M 929.5746244369602 704.9544869112592
c 0 23.57995930129921 -5.769564509892359 6.7729670333519 -12.542531543244259 6.7729670333519
S 904.4895613504716 728.5344462125585 904.4895613504716 704.9544869112592
s 5.769564509892359 -6.7729670333519 12.542531543244259 -6.7729670333519
S 929.5746244369602 681.37452760996 929.5746244369602 704.9544869112592
z" fill="none" stroke="none" style="animation-play-state:paused" ></path>


<circle cx="0" cy="0" r="1.2774820517334269" fill="#f8f8f8" transform="translate(929.5228271484375 708.4932861328125)" style="animation-play-state:paused" ></circle>
<path id="path7" d="M 1391.6149026619305 117.90570816849974
c 0 27.00389849097643 -6.607336864813381 7.756438928259188 -14.363775793072568 7.756438928259188
S 1362.8873510757853 144.90960665947617 1362.8873510757853 117.90570816849974
s 6.607336864813381 -7.756438928259188 14.363775793072568 -7.756438928259188
S 1391.6149026619305 90.90180967752332 1391.6149026619305 117.90570816849974
z" fill="none" stroke="none" style="animation-play-state:paused" ></path>


<circle cx="0" cy="0" r="1.7756858790325047" fill="#f0f0f0" transform="translate(1363.905517578125 130.11277770996094)" style="animation-play-state:paused" ></circle>
<path id="path8" d="M 1449.599174355915 121.67686768291388
c 0 34.84061355526956 -8.52483097628936 10.007410276513598 -18.532241252802958 10.007410276513598
S 1412.534691850309 156.51748123818345 1412.534691850309 121.67686768291388
s 8.52483097628936 -10.007410276513598 18.532241252802958 -10.007410276513598
S 1449.599174355915 86.83625412764431 1449.599174355915 121.67686768291388
z" fill="none" stroke="none" style="animation-play-state:paused" ></path>


<circle cx="0" cy="0" r="1.1321718948682291" fill="#f0f0f0" transform="translate(1447.9393310546875 104.98981475830078)" style="animation-play-state:paused" ></circle>
<path id="path9" d="M 1867.7439264438474 284.2991810526225
c 0 25.24132402313047 -6.176068643957454 7.2501675385587525 -13.426236182516206 7.2501675385587525
S 1840.8914540788148 309.54050507575295 1840.8914540788148 284.2991810526225
s 6.176068643957454 -7.2501675385587525 13.426236182516206 -7.2501675385587525
S 1867.7439264438474 259.057857029492 1867.7439264438474 284.2991810526225
z" fill="none" stroke="none" style="animation-play-state:paused" ></path>


<circle cx="0" cy="0" r="1.7795105713906558" fill="#ebebeb" transform="translate(1862.13330078125 272.3675842285156)" style="animation-play-state:paused" ></circle>
<path id="path10" d="M 919.9690112707474 414.76969646406803
c 0 26.681225316155768 -6.528384917782794 7.663756207831977 -14.19214112561477 7.663756207831977
S 891.5847290195179 441.4509217802238 891.5847290195179 414.76969646406803
s 6.528384917782794 -7.663756207831977 14.19214112561477 -7.663756207831977
S 919.9690112707474 388.0884711479123 919.9690112707474 414.76969646406803
z" fill="none" stroke="none" style="animation-play-state:paused" ></path>


<circle cx="0" cy="0" r="1.6707226355211977" fill="#f0f0f0" transform="translate(906.6640014648438 422.51568603515625)" style="animation-play-state:paused" ></circle>
<path id="path11" d="M 744.3479894026673 995.0154444098664
c 0 22.659546951382776 -5.5443572327851465 6.508593273269521 -12.052950506054668 6.508593273269521
S 720.2420883905579 1017.6749913612492 720.2420883905579 995.0154444098664
s 5.5443572327851465 -6.508593273269521 12.052950506054668 -6.508593273269521
S 744.3479894026673 972.3558974584836 744.3479894026673 995.0154444098664
z" fill="none" stroke="none" style="animation-play-state:paused" ></path>


<circle cx="0" cy="0" r="1.165912723274365" fill="#f8f8f8" transform="translate(741.8723754882812 982.928466796875)" style="animation-play-state:paused" ></circle>
<path id="path12" d="M 978.2069813357934 508.28668620432484
c 0 32.668638281185984 -7.993390217736996 9.383545038212997 -17.37693525594999 9.383545038212997
S 943.4531108238934 540.9553244855108 943.4531108238934 508.28668620432484
s 7.993390217736996 -9.383545038212997 17.37693525594999 -9.383545038212997
S 978.2069813357934 475.6180479231389 978.2069813357934 508.28668620432484
z" fill="none" stroke="none" style="animation-play-state:paused" ></path>


<circle cx="0" cy="0" r="1.2021972999580093" fill="#ffffff" transform="translate(949.8184814453125 524.4403076171875)" style="animation-play-state:paused" ></circle>
<path id="path13" d="M 1737.2096382141817 450.26797292522406
c 0 34.711403387600946 -8.493215722498103 9.970296717715167 -18.46351244021327 9.970296717715167
S 1700.2826133337553 484.979376312825 1700.2826133337553 450.26797292522406
s 8.493215722498103 -9.970296717715167 18.46351244021327 -9.970296717715167
S 1737.2096382141817 415.5565695376231 1737.2096382141817 450.26797292522406
z" fill="none" stroke="none" style="animation-play-state:paused" ></path>


<circle cx="0" cy="0" r="1.2167757303340443" fill="#ffffff" transform="translate(1732.8663330078125 468.72698974609375)" style="animation-play-state:paused" ></circle>
<path id="path14" d="M 1919.4552772489067 1003.5328596351052
c 0 35.50290662390083 -8.686881407975733 10.197643391971514 -18.884524799947247 10.197643391971514
S 1881.6862276490122 1039.035766259006 1881.6862276490122 1003.5328596351052
s 8.686881407975733 -10.197643391971514 18.884524799947247 -10.197643391971514
S 1919.4552772489067 968.0299530112044 1919.4552772489067 1003.5328596351052
z" fill="none" stroke="none" style="animation-play-state:paused" ></path>


<circle cx="0" cy="0" r="1.7546004295429627" fill="#f8f8f8" transform="translate(1918.7047119140625 1016.9887084960938)" style="animation-play-state:paused" ></circle>
<path id="path15" d="M 1538.2989672946458 12.678939853076471
c 0 33.35955120657649 -8.162443380332544 9.581998750825163 -17.744442131157708 9.581998750825163
S 1502.8100830323303 46.03849105965296 1502.8100830323303 12.678939853076471
s 8.162443380332544 -9.581998750825163 17.744442131157708 -9.581998750825163
S 1538.2989672946458 -20.68061135350002 1538.2989672946458 12.678939853076471
z" fill="none" stroke="none" style="animation-play-state:paused" ></path>


<circle cx="0" cy="0" r="1.5128437285941563" fill="#ebebeb" transform="translate(1503.01806640625 4.766134262084961)" style="animation-play-state:paused" ></circle>
<path id="path16" d="M 20.742387194922667 681.5250606690901
c 0 32.0738069780542 -7.847846388247304 9.212689238377271 -17.060535626624574 9.212689238377271
S -13.378684058326481 713.5988676471443 -13.378684058326481 681.5250606690901
s 7.847846388247304 -9.212689238377271 17.060535626624574 -9.212689238377271
S 20.742387194922667 649.4512536910358 20.742387194922667 681.5250606690901
z" fill="none" stroke="none" style="animation-play-state:paused" ></path>


<circle cx="0" cy="0" r="1.8206694982099676" fill="#ffffff" transform="translate(5.678189754486084 691.0741577148438)" style="animation-play-state:paused" ></circle>
<path id="path17" d="M 169.28946226663447 961.7317867210922
c 0 33.48317439817272 -8.192691608063537 9.617507539900675 -17.810199147964212 9.617507539900675
S 133.66906397070602 995.214961119265 133.66906397070602 961.7317867210922
s 8.192691608063537 -9.617507539900675 17.810199147964212 -9.617507539900675
S 169.28946226663447 928.2486123229195 169.28946226663447 961.7317867210922
z" fill="none" stroke="none" style="animation-play-state:paused" ></path>


<circle cx="0" cy="0" r="1.5592384503420817" fill="#ebebeb" transform="translate(133.69044494628906 958.923828125)" style="animation-play-state:paused" ></circle>
<path id="path18" d="M 370.8634499955611 1014.0127455640566
c 0 18.801973725568836 -4.600482932851949 5.400566921174027 -10.001049854025975 5.400566921174027
S 350.8613502875092 1032.8147192896254 350.8613502875092 1014.0127455640566
s 4.600482932851949 -5.400566921174027 10.001049854025975 -5.400566921174027
S 370.8634499955611 995.2107718384877 370.8634499955611 1014.0127455640566
z" fill="none" stroke="none" style="animation-play-state:paused" ></path>


<circle cx="0" cy="0" r="1.6089041201284493" fill="#ebebeb" transform="translate(351.4952697753906 1022.2548217773438)" style="animation-play-state:paused" ></circle>
<path id="path19" d="M 120.72860571060147 1073.8066789057218
c 0 27.295379293647137 -6.6786566356796175 7.840162137536944 -14.518818773216562 7.840162137536944
S 91.69096816416834 1101.102058199369 91.69096816416834 1073.8066789057218
s 6.6786566356796175 -7.840162137536944 14.518818773216562 -7.840162137536944
S 120.72860571060147 1046.5112996120747 120.72860571060147 1073.8066789057218
z" fill="none" stroke="none" style="animation-play-state:paused" ></path>


<circle cx="0" cy="0" r="1.075955372649117" fill="#ebebeb" transform="translate(110.38862609863281 1083.2132568359375)" style="animation-play-state:paused" ></circle>
<path id="path20" d="M 246.76480932335394 412.86358155594195
c 0 24.27468054547924 -5.939549495170451 6.972514624765314 -12.912064119935764 6.972514624765314
S 220.94068108348242 437.13826210142116 220.94068108348242 412.86358155594195
s 5.939549495170451 -6.972514624765314 12.912064119935764 -6.972514624765314
S 246.76480932335394 388.58890101046273 246.76480932335394 412.86358155594195
z" fill="none" stroke="none" style="animation-play-state:paused" ></path>


<circle cx="0" cy="0" r="1.5296788662293146" fill="#f8f8f8" transform="translate(221.3203125 421.1418151855469)" style="animation-play-state:paused" ></circle>
<path id="path21" d="M 1830.5926288364578 29.978567158796956
c 0 25.57196400898311 -6.256969917091611 7.345138598324936 -13.602108515416546 7.345138598324936
S 1803.3884118056246 55.550531167780065 1803.3884118056246 29.978567158796956
s 6.256969917091611 -7.345138598324936 13.602108515416546 -7.345138598324936
S 1830.5926288364578 4.406603149813847 1830.5926288364578 29.978567158796956
z" fill="none" stroke="none" style="animation-play-state:paused" ></path>


<circle cx="0" cy="0" r="1.7841802596273901" fill="#ffffff" transform="translate(1830.5408935546875 26.292043685913086)" style="animation-play-state:paused" ></circle>
<path id="path22" d="M 188.9612426616749 400.0849291611169
c 0 25.869700640336802 -6.329820369444111 7.430658694564826 -13.760479064008937 7.430658694564826
S 161.44028453365704 425.95462980145373 161.44028453365704 400.0849291611169
s 6.329820369444111 -7.430658694564826 13.760479064008937 -7.430658694564826
S 188.9612426616749 374.2152285207801 188.9612426616749 400.0849291611169
z" fill="none" stroke="none" style="animation-play-state:paused" ></path>


<circle cx="0" cy="0" r="1.6331025309776104" fill="#ebebeb" transform="translate(162.93191528320312 412.97955322265625)" style="animation-play-state:paused" ></circle>
<path id="path23" d="M 1781.1200720196373 75.30535571580926
c 0 32.254994509112265 -7.892179507548744 9.26473246538331 -17.156911972932054 9.26473246538331
S 1746.8062480737733 107.56035022492152 1746.8062480737733 75.30535571580926
s 7.892179507548744 -9.26473246538331 17.156911972932054 -9.26473246538331
S 1781.1200720196373 43.05036120669699 1781.1200720196373 75.30535571580926
z" fill="none" stroke="none" style="animation-play-state:paused" ></path>


<circle cx="0" cy="0" r="1.6104579244790704" fill="#ebebeb" transform="translate(1780.6416015625 64.51976013183594)" style="animation-play-state:paused" ></circle>
<path id="path24" d="M 200.11080873065796 603.4356922956737
c 0 30.188552202684033 -7.386560645337582 8.671179888004989 -16.05774053334257 8.671179888004989
S 167.9953276639728 633.6242444983577 167.9953276639728 603.4356922956737
s 7.386560645337582 -8.671179888004989 16.05774053334257 -8.671179888004989
S 200.11080873065796 573.2471400929896 200.11080873065796 603.4356922956737
z" fill="none" stroke="none" style="animation-play-state:paused" ></path>


<circle cx="0" cy="0" r="1.1549678050953909" fill="#f8f8f8" transform="translate(195.20968627929688 587.8491821289062)" style="animation-play-state:paused" ></circle>
<path id="path25" d="M 575.6910439426748 467.33580652618525
c 0 30.759829464576573 -7.526341251970862 8.835270165357102 -16.361611417327964 8.835270165357102
S 542.9678211080189 498.0956359907618 542.9678211080189 467.33580652618525
s 7.526341251970862 -8.835270165357102 16.361611417327964 -8.835270165357102
S 575.6910439426748 436.5759770616087 575.6910439426748 467.33580652618525
z" fill="none" stroke="none" style="animation-play-state:paused" ></path>


<circle cx="0" cy="0" r="1.6358880295224698" fill="#ffffff" transform="translate(562.8603515625 457.4637756347656)" style="animation-play-state:paused" ></circle>
<path id="path26" d="M 1019.0617213559682 914.2012482596106
c 0 37.048748261835 -9.065119255555372 10.641661734782394 -19.706780990337766 10.641661734782394
S 979.6481593752927 951.2499965214456 979.6481593752927 914.2012482596106
s 9.065119255555372 -10.641661734782394 19.706780990337766 -10.641661734782394
S 1019.0617213559682 877.1524999977755 1019.0617213559682 914.2012482596106
z" fill="none" stroke="none" style="animation-play-state:paused" ></path>


<circle cx="0" cy="0" r="1.7121639252704632" fill="#e7e7e7" transform="translate(1004.2244873046875 926.4498291015625)" style="animation-play-state:paused" ></circle>
<path id="path27" d="M 1381.003616578945 109.97418766862307
c 0 26.928010680315264 -6.588768570715436 7.734641365622469 -14.323409936337905 7.734641365622469
S 1352.3567967062693 136.90219834893833 1352.3567967062693 109.97418766862307
s 6.588768570715436 -7.734641365622469 14.323409936337905 -7.734641365622469
S 1381.003616578945 83.0461769883078 1381.003616578945 109.97418766862307
z" fill="none" stroke="none" style="animation-play-state:paused" ></path>


<circle cx="0" cy="0" r="1.458354392987669" fill="#e7e7e7" transform="translate(1355.582275390625 95.62818145751953)" style="animation-play-state:paused" ></circle>
<path id="path28" d="M 832.476561876655 503.292594861347
c 0 32.92854363559237 -8.056984081049196 9.458198703840361 -17.515182784889557 9.458198703840361
S 797.4461963068758 536.2211384969394 797.4461963068758 503.292594861347
s 8.056984081049196 -9.458198703840361 17.515182784889557 -9.458198703840361
S 832.476561876655 470.3640512257547 832.476561876655 503.292594861347
z" fill="none" stroke="none" style="animation-play-state:paused" ></path>


<circle cx="0" cy="0" r="1.3784566950437749" fill="#ffffff" transform="translate(832.3116455078125 496.1784973144531)" style="animation-play-state:paused" ></circle>
<path id="path29" d="M 1145.9572832383146 455.09159800574776
c 0 32.890650835368 -8.047712438441106 9.447314601648255 -17.49502704008936 9.447314601648255
S 1110.967229158136 487.98224884111573 1110.967229158136 455.09159800574776
s 8.047712438441106 -9.447314601648255 17.49502704008936 -9.447314601648255
S 1145.9572832383146 422.2009471703798 1145.9572832383146 455.09159800574776
z" fill="none" stroke="none" style="animation-play-state:paused" ></path>


<circle cx="0" cy="0" r="1.515806828218795" fill="#f0f0f0" transform="translate(1120.241943359375 441.23095703125)" style="animation-play-state:paused" ></circle>
<path id="path30" d="M 943.2711721207962 495.97665406754743
c 0 25.345350994624745 -6.201522051876267 7.280047626115619 -13.481569677991885 7.280047626115619
S 916.3080327648125 521.3220050621721 916.3080327648125 495.97665406754743
s 6.201522051876267 -7.280047626115619 13.481569677991885 -7.280047626115619
S 943.2711721207962 470.63130307292266 943.2711721207962 495.97665406754743
z" fill="none" stroke="none" style="animation-play-state:paused" ></path>


<circle cx="0" cy="0" r="1.3879381032275258" fill="#e7e7e7" transform="translate(942.8719482421875 487.3121032714844)" style="animation-play-state:paused" ></circle>
<path id="path31" d="M 827.1065414912224 872.5826672838995
c 0 23.78609732718414 -5.820002537502502 6.8321768918507635 -12.652179429353264 6.8321768918507635
S 801.8021826325158 896.3687646110836 801.8021826325158 872.5826672838995
s 5.820002537502502 -6.8321768918507635 12.652179429353264 -6.8321768918507635
S 827.1065414912224 848.7965699567153 827.1065414912224 872.5826672838995
z" fill="none" stroke="none" style="animation-play-state:paused" ></path>


<circle cx="0" cy="0" r="1.7862639955751318" fill="#f0f0f0" transform="translate(801.8861083984375 876.9979248046875)" style="animation-play-state:paused" ></circle>
<path id="path32" d="M 413.3270199101545 37.03966338907391
c 0 32.24046174369677 -7.8886236181385705 9.26055816042354 -17.14918177856211 9.26055816042354
S 379.0286563530303 69.28012513277068 379.0286563530303 37.03966338907391
s 7.8886236181385705 -9.26055816042354 17.14918177856211 -9.26055816042354
S 413.3270199101545 4.7992016453771384 413.3270199101545 37.03966338907391
z" fill="none" stroke="none" style="animation-play-state:paused" ></path>


<circle cx="0" cy="0" r="1.1646031166220803" fill="#e7e7e7" transform="translate(412.9403991699219 46.99382400512695)" style="animation-play-state:paused" ></circle>
<path id="path33" d="M 1222.971592380893 181.25628262642698
c 0 26.58199866284766 -6.504106055803151 7.635254935073265 -14.139360990876416 7.635254935073265
S 1194.6928703991402 207.83828128927465 1194.6928703991402 181.25628262642698
s 6.504106055803151 -7.635254935073265 14.139360990876416 -7.635254935073265
S 1222.971592380893 154.6742839635793 1222.971592380893 181.25628262642698
z" fill="none" stroke="none" style="animation-play-state:paused" ></path>


<circle cx="0" cy="0" r="1.4440498628144263" fill="#ebebeb" transform="translate(1197.282470703125 195.39324951171875)" style="animation-play-state:paused" ></circle>
<path id="path34" d="M 417.5378175078925 227.82814327991127
c 0 29.06956939872299 -7.112766980538603 8.349769933675752 -15.462536914214356 8.349769933675752
S 386.6127436794638 256.89771267863426 386.6127436794638 227.82814327991127
s 7.112766980538603 -8.349769933675752 15.462536914214356 -8.349769933675752
S 417.5378175078925 198.75857388118828 417.5378175078925 227.82814327991127
z" fill="none" stroke="none" style="animation-play-state:paused" ></path>


<circle cx="0" cy="0" r="1.3374130301720624" fill="#ffffff" transform="translate(395.2467956542969 215.9532470703125)" style="animation-play-state:paused" ></circle>
<path id="path35" d="M 1898.6690884325953 338.62454706736986
c 0 36.81609565926421 -9.008193618756135 10.574835987235465 -19.583029605991598 10.574835987235465
S 1859.503029220612 375.44064272663405 1859.503029220612 338.62454706736986
s 9.008193618756135 -10.574835987235465 19.583029605991598 -10.574835987235465
S 1898.6690884325953 301.80845140810567 1898.6690884325953 338.62454706736986
z" fill="none" stroke="none" style="animation-play-state:paused" ></path>


<circle cx="0" cy="0" r="1.9317077792422515" fill="#f0f0f0" transform="translate(1860.1002197265625 351.34185791015625)" style="animation-play-state:paused" ></circle>
<path id="path36" d="M 402.07429950767886 510.04048390137655
c 0 20.250302696721388 -4.954861298133956 5.8165763065050795 -10.771437604639036 5.8165763065050795
S 380.53142429840074 530.290786598098 380.53142429840074 510.04048390137655
s 4.954861298133956 -5.8165763065050795 10.771437604639036 -5.8165763065050795
S 402.07429950767886 489.79018120465514 402.07429950767886 510.04048390137655
z" fill="none" stroke="none" style="animation-play-state:paused" ></path>


<circle cx="0" cy="0" r="1.9764731465870036" fill="#f0f0f0" transform="translate(382.9535827636719 499.25152587890625)" style="animation-play-state:paused" ></circle>
<path id="path37" d="M 863.0401022737757 133.28174823779247
c 0 21.171116074166605 -5.180166698998211 6.0810652553457265 -11.261231954343938 6.0810652553457265
S 840.5176383650879 154.45286431195908 840.5176383650879 133.28174823779247
s 5.180166698998211 -6.0810652553457265 11.261231954343938 -6.0810652553457265
S 863.0401022737757 112.11063216362587 863.0401022737757 133.28174823779247
z" fill="none" stroke="none" style="animation-play-state:paused" ></path>


<circle cx="0" cy="0" r="1.9191646043600252" fill="#e7e7e7" transform="translate(854.537353515625 126.29713439941406)" style="animation-play-state:paused" ></circle>
<path id="path38" d="M 1903.9883831799325 796.7515962210794
c 0 24.267916436963045 -5.937894447342021 6.970571742531939 -12.908466189873959 6.970571742531939
S 1878.1714508001846 821.0195126580423 1878.1714508001846 796.7515962210794
s 5.937894447342021 -6.970571742531939 12.908466189873959 -6.970571742531939
S 1903.9883831799325 772.4836797841164 1903.9883831799325 796.7515962210794
z" fill="none" stroke="none" style="animation-play-state:paused" ></path>


<circle cx="0" cy="0" r="1.092471698397802" fill="#ffffff" transform="translate(1897.222412109375 807.0453491210938)" style="animation-play-state:paused" ></circle>
<path id="path39" d="M 1266.5404912482575 29.420932102173648
c 0 32.24735653411689 -7.890310641326472 9.262538578948469 -17.15284922027494 9.262538578948469
S 1232.2347928077077 61.66828863629054 1232.2347928077077 29.420932102173648
s 7.890310641326472 -9.262538578948469 17.15284922027494 -9.262538578948469
S 1266.5404912482575 -2.8264244319432414 1266.5404912482575 29.420932102173648
z" fill="none" stroke="none" style="animation-play-state:paused" ></path>


<circle cx="0" cy="0" r="1.2458197282906076" fill="#e7e7e7" transform="translate(1245.2740478515625 18.834646224975586)" style="animation-play-state:paused" ></circle>
<path id="path40" d="M 147.0068499008756 1019.4014409234782
c 0 21.037123863531146 -5.147381370864003 6.042578131014265 -11.189959501878269 6.042578131014265
S 124.62693089711908 1040.4385647870092 124.62693089711908 1019.4014409234782
s 5.147381370864003 -6.042578131014265 11.189959501878269 -6.042578131014265
S 147.0068499008756 998.364317059947 147.0068499008756 1019.4014409234782
z" fill="none" stroke="none" style="animation-play-state:paused" ></path>


<circle cx="0" cy="0" r="1.9721550487641888" fill="#f0f0f0" transform="translate(146.88726806640625 1014.6051635742188)" style="animation-play-state:paused" ></circle>
<path id="path41" d="M 1056.374278204442 472.76235456993527
c 0 24.321949266708618 -5.951115246109555 6.986091810650348 -12.937207056759902 6.986091810650348
S 1030.499864090922 497.08430383664387 1030.499864090922 472.76235456993527
s 5.951115246109555 -6.986091810650348 12.937207056759902 -6.986091810650348
S 1056.374278204442 448.44040530322667 1056.374278204442 472.76235456993527
z" fill="none" stroke="none" style="animation-play-state:paused" ></path>


<circle cx="0" cy="0" r="1.3244976701609936" fill="#ffffff" transform="translate(1031.4140625 461.77703857421875)" style="animation-play-state:paused" ></circle>
<path id="path42" d="M 666.7595702890682 1074.66179905257
c 0 23.067996617387713 -5.644297044679972 6.62591392201562 -12.270210966695592 6.62591392201562
S 642.219148355677 1097.7297956699576 642.219148355677 1074.66179905257
s 5.644297044679972 -6.62591392201562 12.270210966695592 -6.62591392201562
S 666.7595702890682 1051.5938024351822 666.7595702890682 1074.66179905257
z" fill="none" stroke="none" style="animation-play-state:paused" ></path>


<circle cx="0" cy="0" r="1.4478938826889434" fill="#e7e7e7" transform="translate(659.5479125976562 1083.7808837890625)" style="animation-play-state:paused" ></circle>
<path id="path43" d="M 307.5902071163529 170.32516755684335
c 0 35.178485798281145 -8.607501844260279 10.10445868674033 -18.71196053100061 10.10445868674033
S 270.16628605435164 205.5036533551245 270.16628605435164 170.32516755684335
s 8.607501844260279 -10.10445868674033 18.71196053100061 -10.10445868674033
S 307.5902071163529 135.1466817585622 307.5902071163529 170.32516755684335
z" fill="none" stroke="none" style="animation-play-state:paused" ></path>


<circle cx="0" cy="0" r="1.902466555485455" fill="#f0f0f0" transform="translate(271.78887939453125 187.0494384765625)" style="animation-play-state:paused" ></circle>
<path id="path44" d="M 253.45143169758416 838.5941225777686
c 0 29.666938655100907 -7.2589317985885184 8.521354720082176 -15.780286518670694 8.521354720082176
S 221.89085866024277 868.2610612328696 221.89085866024277 838.5941225777686
s 7.2589317985885184 -8.521354720082176 15.780286518670694 -8.521354720082176
S 253.45143169758416 808.9271839226677 253.45143169758416 838.5941225777686
z" fill="none" stroke="none" style="animation-play-state:paused" ></path>


<circle cx="0" cy="0" r="1.6379770517711278" fill="#f0f0f0" transform="translate(244.03164672851562 826.987060546875)" style="animation-play-state:paused" ></circle>
<path id="path45" d="M 389.4604104513426 778.3455494963608
c 0 33.83725771833188 -8.279329016187585 9.719212323350645 -17.998541339538228 9.719212323350645
S 353.46332777226615 812.1828072146927 353.46332777226615 778.3455494963608
s 8.279329016187585 -9.719212323350645 17.998541339538228 -9.719212323350645
S 389.4604104513426 744.5082917780289 389.4604104513426 778.3455494963608
z" fill="none" stroke="none" style="animation-play-state:paused" ></path>


<circle cx="0" cy="0" r="1.3602770973361344" fill="#ffffff" transform="translate(389.4544982910156 779.8685302734375)" style="animation-play-state:paused" ></circle>
<path id="path46" d="M 1671.1579686308187 99.97499153322939
c 0 33.763938038322856 -8.26138909448325 9.698152415262948 -17.9595415097462 9.698152415262948
S 1635.2388856113262 133.73892957155223 1635.2388856113262 99.97499153322939
s 8.26138909448325 -9.698152415262948 17.9595415097462 -9.698152415262948
S 1671.1579686308187 66.21105349490654 1671.1579686308187 99.97499153322939
z" fill="none" stroke="none" style="animation-play-state:paused" ></path>


<circle cx="0" cy="0" r="1.1296523711401172" fill="#f8f8f8" transform="translate(1663.129150390625 84.45458984375)" style="animation-play-state:paused" ></circle>
<path id="path47" d="M 824.8277694347215 526.3433996970329
c 0 32.996507437717376 -8.073613521994677 9.477720221472014 -17.551333743466692 9.477720221472014
S 789.7251019477882 559.3399071347502 789.7251019477882 526.3433996970329
s 8.073613521994677 -9.477720221472014 17.551333743466692 -9.477720221472014
S 824.8277694347215 493.3468922593155 824.8277694347215 526.3433996970329
z" fill="none" stroke="none" style="animation-play-state:paused" ></path>


<circle cx="0" cy="0" r="1.5962541213673103" fill="#f8f8f8" transform="translate(795.2911987304688 543.2543334960938)" style="animation-play-state:paused" ></circle>
<path id="path48" d="M 581.910740718612 320.4427315439521
c 0 34.67738252919251 -8.484891469908804 9.960524769023381 -18.445416238932186 9.960524769023381
S 545.0199082407476 355.12011407314463 545.0199082407476 320.4427315439521
s 8.484891469908804 -9.960524769023381 18.445416238932186 -9.960524769023381
S 581.910740718612 285.7653490147596 581.910740718612 320.4427315439521
z" fill="none" stroke="none" style="animation-play-state:paused" ></path>


<circle cx="0" cy="0" r="1.2406410849167848" fill="#ebebeb" transform="translate(545.0529174804688 316.9297180175781)" style="animation-play-state:paused" ></circle>
<path id="path49" d="M 702.5521984814698 538.1156129560386
c 0 20.824326936253787 -5.095314037594011 5.981455609349492 -11.076769646943504 5.981455609349492
S 680.3986591875828 558.9399398922924 680.3986591875828 538.1156129560386
s 5.095314037594011 -5.981455609349492 11.076769646943504 -5.981455609349492
S 702.5521984814698 517.2912860197848 702.5521984814698 538.1156129560386
z" fill="none" stroke="none" style="animation-play-state:paused" ></path>


<circle cx="0" cy="0" r="1.7878187675895851" fill="#f8f8f8" transform="translate(680.4913330078125 533.8372802734375)" style="animation-play-state:paused" ></circle>
<path id="path50" d="M 785.7225346237963 36.07523326329157
c 0 27.63920705562675 -6.762784705100161 7.938921175552363 -14.701705880652526 7.938921175552363
S 756.3191228624912 63.71444031891832 756.3191228624912 36.07523326329157
s 6.762784705100161 -7.938921175552363 14.701705880652526 -7.938921175552363
S 785.7225346237963 8.436026207664824 785.7225346237963 36.07523326329157
z" fill="none" stroke="none" style="animation-play-state:paused" ></path>


<circle cx="0" cy="0" r="1.146284275592453" fill="#f8f8f8" transform="translate(785.589111328125 30.200159072875977)" style="animation-play-state:paused" ></circle>
<path id="path51" d="M 1413.662629932153 821.7693085224565
c 0 31.06537725338426 -7.601102944976999 8.92303389192952 -16.52413683690652 8.92303389192952
S 1380.61435625834 852.8346857758407 1380.61435625834 821.7693085224565
s 7.601102944976999 -8.92303389192952 16.52413683690652 -8.92303389192952
S 1413.662629932153 790.7039312690723 1413.662629932153 821.7693085224565
z" fill="none" stroke="none" style="animation-play-state:paused" ></path>


<circle cx="0" cy="0" r="1.7211204219937926" fill="#f0f0f0" transform="translate(1381.33203125 833.89599609375)" style="animation-play-state:paused" ></circle>
<path id="path52" d="M 1608.0905678332026 1076.1929144420346
c 0 23.926445168396622 -5.854342966735342 6.872489569645838 -12.726832536381181 6.872489569645838
S 1582.6369027604403 1100.1193596104313 1582.6369027604403 1076.1929144420346
s 5.854342966735342 -6.872489569645838 12.726832536381181 -6.872489569645838
S 1608.0905678332026 1052.266469273638 1608.0905678332026 1076.1929144420346
z" fill="none" stroke="none" style="animation-play-state:paused" ></path>


<circle cx="0" cy="0" r="1.648258496114627" fill="#f0f0f0" transform="translate(1601.6070556640625 1086.50439453125)" style="animation-play-state:paused" ></circle>
<path id="path53" d="M 1855.5094125590724 409.8355054141764
c 0 36.474793549670075 -8.924683528110762 10.47680240256481 -19.40148593067557 10.47680240256481
S 1816.7064406977213 446.3102989638465 1816.7064406977213 409.8355054141764
s 8.924683528110762 -10.47680240256481 19.40148593067557 -10.47680240256481
S 1855.5094125590724 373.3607118645063 1855.5094125590724 409.8355054141764
z" fill="none" stroke="none" style="animation-play-state:paused" ></path>


<circle cx="0" cy="0" r="1.699174219490141" fill="#e7e7e7" transform="translate(1855.4197998046875 415.5853271484375)" style="animation-play-state:paused" ></circle>
<path id="path54" d="M 737.2163052739886 942.0248072778844
c 0 31.813558506055223 -7.784168570630532 9.137937017696713 -16.922105588327245 9.137937017696713
S 703.3720940973342 973.8383657839396 703.3720940973342 942.0248072778844
s 7.784168570630532 -9.137937017696713 16.922105588327245 -9.137937017696713
S 737.2163052739886 910.2112487718292 737.2163052739886 942.0248072778844
z" fill="none" stroke="none" style="animation-play-state:paused" ></path>


<circle cx="0" cy="0" r="1.3012477486590086" fill="#f8f8f8" transform="translate(727.4584350585938 954.7587280273438)" style="animation-play-state:paused" ></circle>
<path id="path55" d="M 1369.0059521641535 699.3466931547791
c 0 19.177321851789983 -4.692323431820952 5.508379680833293 -10.200703112654246 5.508379680833293
S 1348.604545938845 718.5240150065691 1348.604545938845 699.3466931547791
s 4.692323431820952 -5.508379680833293 10.200703112654246 -5.508379680833293
S 1369.0059521641535 680.1693713029891 1369.0059521641535 699.3466931547791
z" fill="none" stroke="none" style="animation-play-state:paused" ></path>


<circle cx="0" cy="0" r="1.408231840795886" fill="#f0f0f0" transform="translate(1348.63720703125 701.8997802734375)" style="animation-play-state:paused" ></circle>
<path id="path56" d="M 216.20913846827844 896.5159513212553
c 0 19.700803248295358 -4.820409305433969 5.658741358552922 -10.479150663986891 5.658741358552922
S 195.25083714030464 916.2167545695506 195.25083714030464 896.5159513212553
s 4.820409305433969 -5.658741358552922 10.479150663986891 -5.658741358552922
S 216.20913846827844 876.81514807296 216.20913846827844 896.5159513212553
z" fill="none" stroke="none" style="animation-play-state:paused" ></path>


<circle cx="0" cy="0" r="1.180637441324938" fill="#e7e7e7" transform="translate(198.89840698242188 906.3966064453125)" style="animation-play-state:paused" ></circle>
<path id="path57" d="M 1058.9263303706325 272.9842527945518
c 0 36.83796841026102 -9.013545462085142 10.581118585926038 -19.594664048011182 10.581118585926038
S 1019.7370022746101 309.8222212048128 1019.7370022746101 272.9842527945518
s 9.013545462085142 -10.581118585926038 19.594664048011182 -10.581118585926038
S 1058.9263303706325 236.1462843842908 1058.9263303706325 272.9842527945518
z" fill="none" stroke="none" style="animation-play-state:paused" ></path>


<circle cx="0" cy="0" r="1.3012703212096022" fill="#f8f8f8" transform="translate(1047.4136962890625 287.5504150390625)" style="animation-play-state:paused" ></circle>
<path id="path58" d="M 1914.1326695071916 901.069603716706
c 0 25.124699615301395 -6.147532884595022 7.216669038437635 -13.364201923032656 7.216669038437635
S 1887.4042656611264 926.1943033320074 1887.4042656611264 901.069603716706
s 6.147532884595022 -7.216669038437635 13.364201923032656 -7.216669038437635
S 1914.1326695071916 875.9449041014045 1914.1326695071916 901.069603716706
z" fill="none" stroke="none" style="animation-play-state:paused" ></path>


<circle cx="0" cy="0" r="1.2288333795068478" fill="#ffffff" transform="translate(1894.1964111328125 911.9117431640625)" style="animation-play-state:paused" ></circle>
<path id="path59" d="M 1270.5366576105193 983.4050026217511
c 0 23.10538753878108 -5.653445887148561 6.6366538675222255 -12.290099754670788 6.6366538675222255
S 1245.9564581011778 1006.5103901605322 1245.9564581011778 983.4050026217511
s 5.653445887148561 -6.6366538675222255 12.290099754670788 -6.6366538675222255
S 1270.5366576105193 960.29961508297 1270.5366576105193 983.4050026217511
z" fill="none" stroke="none" style="animation-play-state:paused" ></path>


<circle cx="0" cy="0" r="1.9285674851225822" fill="#f0f0f0" transform="translate(1248.605224609375 971.083251953125)" style="animation-play-state:paused" ></circle>
<path id="path60" d="M 1763.5253707675529 609.4930044954755
c 0 31.422482605179926 -7.6884797863738115 9.02560670574317 -16.714086492116984 9.02560670574317
S 1730.0971977833187 640.9154871006554 1730.0971977833187 609.4930044954755
s 7.6884797863738115 -9.02560670574317 16.714086492116984 -9.02560670574317
S 1763.5253707675529 578.0705218902956 1763.5253707675529 609.4930044954755
z" fill="none" stroke="none" style="animation-play-state:paused" ></path>


<circle cx="0" cy="0" r="1.4476515322059536" fill="#e7e7e7" transform="translate(1730.10205078125 608.2442626953125)" style="animation-play-state:paused" ></circle>
<path id="path61" d="M 1852.9311454827503 271.00017111510084
c 0 37.56673983495413 -9.191861874510051 10.790446548337888 -19.98230842284794 10.790446548337888
S 1812.9665286370546 308.566910950055 1812.9665286370546 271.00017111510084
s 9.191861874510051 -10.790446548337888 19.98230842284794 -10.790446548337888
S 1852.9311454827503 233.43343128014672 1852.9311454827503 271.00017111510084
z" fill="none" stroke="none" style="animation-play-state:paused" ></path>


<circle cx="0" cy="0" r="1.9096765060945837" fill="#f8f8f8" transform="translate(1852.9251708984375 269.40191650390625)" style="animation-play-state:paused" ></circle>
<path id="path62" d="M 470.4949216246668 644.0260839976916
c 0 23.697388859598856 -5.798297274157166 6.806696800097543 -12.604994074254709 6.806696800097543
S 445.2849334761574 667.7234728572904 445.2849334761574 644.0260839976916
s 5.798297274157166 -6.806696800097543 12.604994074254709 -6.806696800097543
S 470.4949216246668 620.3286951380927 470.4949216246668 644.0260839976916
z" fill="none" stroke="none" style="animation-play-state:paused" ></path>


<circle cx="0" cy="0" r="1.507966312467205" fill="#f0f0f0" transform="translate(455.1767272949219 636.4244995117188)" style="animation-play-state:paused" ></circle>
<path id="path63" d="M 1399.0892751228923 669.8802677387963
c 0 21.031532537701786 -5.1460132805015 6.040972111893066 -11.186985392394567 6.040972111893066
S 1376.7153043381034 690.9118002764981 1376.7153043381034 669.8802677387963
s 5.1460132805015 -6.040972111893066 11.186985392394567 -6.040972111893066
S 1399.0892751228923 648.8487352010945 1399.0892751228923 669.8802677387963
z" fill="none" stroke="none" style="animation-play-state:paused" ></path>


<circle cx="0" cy="0" r="1.5445802632643475" fill="#ffffff" transform="translate(1376.7232666015625 668.5714111328125)" style="animation-play-state:paused" ></circle>
<path id="path64" d="M 1062.9131603376675 985.9093181699265
c 0 27.231914089264706 -6.663127915458385 7.821932770320714 -14.485060685779098 7.821932770320714
S 1033.9430389661095 1013.1412322591912 1033.9430389661095 985.9093181699265
s 6.663127915458385 -7.821932770320714 14.485060685779098 -7.821932770320714
S 1062.9131603376675 958.6774040806617 1062.9131603376675 985.9093181699265
z" fill="none" stroke="none" style="animation-play-state:paused" ></path>


<circle cx="0" cy="0" r="1.279354840612515" fill="#f0f0f0" transform="translate(1034.48681640625 975.7871704101562)" style="animation-play-state:paused" ></circle>
<path id="path65" d="M 1063.1168727998052 65.03720437732325
c 0 22.012878471490083 -5.386129838768849 6.322848071598215 -11.708977910367064 6.322848071598215
S 1039.6989169790709 87.05008284881333 1039.6989169790709 65.03720437732325
s 5.386129838768849 -6.322848071598215 11.708977910367064 -6.322848071598215
S 1063.1168727998052 43.024325905833166 1063.1168727998052 65.03720437732325
z" fill="none" stroke="none" style="animation-play-state:paused" ></path>


<circle cx="0" cy="0" r="1.2855894896657718" fill="#ffffff" transform="translate(1046.49755859375 56.26536560058594)" style="animation-play-state:paused" ></circle>
<path id="path66" d="M 1321.4989364210392 751.8711593956622
c 0 32.62392328979572 -7.982449315588313 9.370701370473238 -17.35315068606155 9.370701370473238
S 1286.792635048916 784.4950826854579 1286.792635048916 751.8711593956622
s 7.982449315588313 -9.370701370473238 17.35315068606155 -9.370701370473238
S 1321.4989364210392 719.2472361058665 1321.4989364210392 751.8711593956622
z" fill="none" stroke="none" style="animation-play-state:paused" ></path>


<circle cx="0" cy="0" r="1.7044367302004333" fill="#e7e7e7" transform="translate(1286.804443359375 749.7828369140625)" style="animation-play-state:paused" ></circle>
<path id="path67" d="M 1157.4227705262529 616.9524614237673
c 0 32.465351014640696 -7.943649716348254 9.325154014843603 -17.26880373119186 9.325154014843603
S 1122.8851630638692 649.417812438408 1122.8851630638692 616.9524614237673
s 7.943649716348254 -9.325154014843603 17.26880373119186 -9.325154014843603
S 1157.4227705262529 584.4871104091267 1157.4227705262529 616.9524614237673
z" fill="none" stroke="none" style="animation-play-state:paused" ></path>


<circle cx="0" cy="0" r="1.4731253568303757" fill="#ebebeb" transform="translate(1123.51806640625 604.98388671875)" style="animation-play-state:paused" ></circle>
<path id="path68" d="M 561.7337596151266 965.3383723457989
c 0 22.013713490916786 -5.3863341520328305 6.3230879176037575 -11.709422069636588 6.3230879176037575
S 538.3149154758534 987.3520858367157 538.3149154758534 965.3383723457989
s 5.3863341520328305 -6.3230879176037575 11.709422069636588 -6.3230879176037575
S 561.7337596151266 943.3246588548822 561.7337596151266 965.3383723457989
z" fill="none" stroke="none" style="animation-play-state:paused" ></path>


<circle cx="0" cy="0" r="1.7620783850406627" fill="#ffffff" transform="translate(560.2195434570312 976.644287109375)" style="animation-play-state:paused" ></circle>
<path id="path69" d="M 555.2267017628237 494.1021941232426
c 0 23.38674392190842 -5.7222884064244 6.717468998846035 -12.439757405270434 6.717468998846035
S 530.3471869522828 517.488938045151 530.3471869522828 494.1021941232426
s 5.7222884064244 -6.717468998846035 12.439757405270434 -6.717468998846035
S 555.2267017628237 470.7154502013342 555.2267017628237 494.1021941232426
z" fill="none" stroke="none" style="animation-play-state:paused" ></path>


<circle cx="0" cy="0" r="1.7298278285858844" fill="#e7e7e7" transform="translate(555.0392456054688 500.2545471191406)" style="animation-play-state:paused" ></circle>
<path id="path70" d="M 1288.780915272452 571.6156329701064
c 0 19.82566013366705 -4.850959394407894 5.694604506478833 -10.545563900886727 5.694604506478833
S 1267.6897874706785 591.4412931037734 1267.6897874706785 571.6156329701064
s 4.850959394407894 -5.694604506478833 10.545563900886727 -5.694604506478833
S 1288.780915272452 551.7899728364393 1288.780915272452 571.6156329701064
z" fill="none" stroke="none" style="animation-play-state:paused" ></path>


<circle cx="0" cy="0" r="1.4329741858573937" fill="#ebebeb" transform="translate(1267.6907958984375 571.3562622070312)" style="animation-play-state:paused" ></circle>
<path id="path71" d="M 148.22941695464334 602.777600999919
c 0 21.568632230677167 -5.277431290484838 6.1952454279604625 -11.4726767184453 6.1952454279604625
S 125.28406351775273 624.3462332305961 125.28406351775273 602.777600999919
s 5.277431290484838 -6.1952454279604625 11.4726767184453 -6.1952454279604625
S 148.22941695464334 581.2089687692418 148.22941695464334 602.777600999919
z" fill="none" stroke="none" style="animation-play-state:paused" ></path>


<circle cx="0" cy="0" r="1.595505261387962" fill="#ffffff" transform="translate(148.2106475830078 600.68212890625)" style="animation-play-state:paused" ></circle>
<path id="path72" d="M 587.7888500931915 327.96671088218227
c 0 27.92506503126384 -6.832728677862429 8.021029317490678 -14.853757995353106 8.021029317490678
S 558.0813341024852 355.8917759134461 558.0813341024852 327.96671088218227
s 6.832728677862429 -8.021029317490678 14.853757995353106 -8.021029317490678
S 587.7888500931915 300.0416458509184 587.7888500931915 327.96671088218227
z" fill="none" stroke="none" style="animation-play-state:paused" ></path>


<circle cx="0" cy="0" r="1.6042074736751288" fill="#f8f8f8" transform="translate(558.7144775390625 338.8026123046875)" style="animation-play-state:paused" ></circle>
<path id="path73" d="M 95.40448680880614 358.3260722535588
c 0 34.85865888651939 -8.529246323297297 10.012593509957698 -18.541839833254993 10.012593509957698
S 58.32080714229615 393.18473114007816 58.32080714229615 358.3260722535588
s 8.529246323297297 -10.012593509957698 18.541839833254993 -10.012593509957698
S 95.40448680880614 323.4674133670394 95.40448680880614 358.3260722535588
z" fill="none" stroke="none" style="animation-play-state:paused" ></path>


<circle cx="0" cy="0" r="1.9705592097836298" fill="#ffffff" transform="translate(70.68930053710938 370.93719482421875)" style="animation-play-state:paused" ></circle>
<path id="path74" d="M 1076.2408605150642 953.9919974570323
c 0 22.681816588979988 -5.549806186665316 6.514989871302763 -12.06479605796808 6.514989871302763
S 1052.111268399128 976.6738140460124 1052.111268399128 953.9919974570323
s 5.549806186665316 -6.514989871302763 12.06479605796808 -6.514989871302763
S 1076.2408605150642 931.3101808680523 1076.2408605150642 953.9919974570323
z" fill="none" stroke="none" style="animation-play-state:paused" ></path>


<circle cx="0" cy="0" r="1.3540476008785565" fill="#e7e7e7" transform="translate(1056.619873046875 942.8436279296875)" style="animation-play-state:paused" ></circle>
<path id="path75" d="M 1100.6494465265519 267.134372193329
c 0 28.35683337017521 -6.938374122489678 8.145047882922666 -15.083422005412345 8.145047882922666
S 1070.4826025157272 295.4912055635042 1070.4826025157272 267.134372193329
s 6.938374122489678 -8.145047882922666 15.083422005412345 -8.145047882922666
S 1100.6494465265519 238.7775388231538 1100.6494465265519 267.134372193329
z" fill="none" stroke="none" style="animation-play-state:paused" ></path>


<circle cx="0" cy="0" r="1.4562907991910552" fill="#f8f8f8" transform="translate(1076.3509521484375 253.37696838378906)" style="animation-play-state:paused" ></circle>
<path id="path76" d="M 1147.1503566397562 582.2807700706144
c 0 22.618487039064608 -5.534310658494531 6.496799468667494 -12.031110127162027 6.496799468667494
S 1123.088136385432 604.899257109679 1123.088136385432 582.2807700706144
s 5.534310658494531 -6.496799468667494 12.031110127162027 -6.496799468667494
S 1147.1503566397562 559.6622830315498 1147.1503566397562 582.2807700706144
z" fill="none" stroke="none" style="animation-play-state:paused" ></path>


<circle cx="0" cy="0" r="1.570850209943803" fill="#ebebeb" transform="translate(1127.0926513671875 593.7511596679688)" style="animation-play-state:paused" ></circle>
<path id="path77" d="M 1426.9197298402403 553.8183829861006
c 0 34.805194210336815 -8.516164540827091 9.99723663488398 -18.51340117571107 9.99723663488398
S 1389.892927488818 588.6235771964374 1389.892927488818 553.8183829861006
s 8.516164540827091 -9.99723663488398 18.51340117571107 -9.99723663488398
S 1426.9197298402403 519.0131887757638 1426.9197298402403 553.8183829861006
z" fill="none" stroke="none" style="animation-play-state:paused" ></path>


<circle cx="0" cy="0" r="1.1474882169724705" fill="#ebebeb" transform="translate(1426.9166259765625 552.7506713867188)" style="animation-play-state:paused" ></circle>
<path id="path78" d="M 1608.920848490971 147.4454727476089
c 0 34.95262413809528 -8.552237821023313 10.039583529027368 -18.59182135005068 10.039583529027368
S 1571.7372057908697 182.39809688570418 1571.7372057908697 147.4454727476089
s 8.552237821023313 -10.039583529027368 18.59182135005068 -10.039583529027368
S 1608.920848490971 112.49284860951363 1608.920848490971 147.4454727476089
z" fill="none" stroke="none" style="animation-play-state:paused" ></path>


<circle cx="0" cy="0" r="1.973978103200922" fill="#ebebeb" transform="translate(1581.337158203125 162.39749145507812)" style="animation-play-state:paused" ></circle>
<path id="path79" d="M 1510.4769608828435 712.1073937726202
c 0 27.112930309705018 -6.634014863012929 7.787756578319526 -14.421771441332456 7.787756578319526
S 1481.6334180001784 739.2203240823252 1481.6334180001784 712.1073937726202
s 6.634014863012929 -7.787756578319526 14.421771441332456 -7.787756578319526
S 1510.4769608828435 684.9944634629152 1510.4769608828435 712.1073937726202
z" fill="none" stroke="none" style="animation-play-state:paused" ></path>


<circle cx="0" cy="0" r="1.0139376464846712" fill="#e7e7e7" transform="translate(1504.5931396484375 725.0420532226562)" style="animation-play-state:paused" ></circle>
<path id="path80" d="M 1080.02884577607 97.70246949946309
c 0 22.184905685933714 -5.428221604005057 6.372260143832024 -11.800481747837082 6.372260143832024
S 1056.427882280396 119.8873751853968 1056.427882280396 97.70246949946309
s 5.428221604005057 -6.372260143832024 11.800481747837082 -6.372260143832024
S 1080.02884577607 75.51756381352938 1080.02884577607 97.70246949946309
z" fill="none" stroke="none" style="animation-play-state:paused" ></path>


<circle cx="0" cy="0" r="1.0606337322389767" fill="#f8f8f8" transform="translate(1080.0169677734375 96.00467681884766)" style="animation-play-state:paused" ></circle>
<path id="path81" d="M 741.9456472387907 1014.3145631017653
c 0 29.077050435634526 -7.1145974470169575 8.351918742150342 -15.4665161891673 8.351918742150342
S 711.012614860456 1043.3916135373997 711.012614860456 1014.3145631017653
s 7.1145974470169575 -8.351918742150342 15.4665161891673 -8.351918742150342
S 741.9456472387907 985.2375126661308 741.9456472387907 1014.3145631017653
z" fill="none" stroke="none" style="animation-play-state:paused" ></path>


<circle cx="0" cy="0" r="1.5321854336171843" fill="#e7e7e7" transform="translate(711.015869140625 1015.311279296875)" style="animation-play-state:paused" ></circle>
<path id="path82" d="M 974.0702825928668 579.5045926233703
c 0 28.489444424114716 -6.970821508028068 8.18313829203295 -15.153959800061019 8.18313829203295
S 943.7623629927448 607.994037047485 943.7623629927448 579.5045926233703
s 6.970821508028068 -8.18313829203295 15.153959800061019 -8.18313829203295
S 974.0702825928668 551.0151481992556 974.0702825928668 579.5045926233703
z" fill="none" stroke="none" style="animation-play-state:paused" ></path>


<circle cx="0" cy="0" r="1.8536725657758615" fill="#f8f8f8" transform="translate(974.0200805664062 583.3624877929688)" style="animation-play-state:paused" ></circle>
<path id="path83" d="M 1277.8417009197824 223.89591055553348
c 0 27.624533551823735 -6.759194379701551 7.934706445736604 -14.693900825438156 7.934706445736604
S 1248.4538992689063 251.5204441073572 1248.4538992689063 223.89591055553348
s 6.759194379701551 -7.934706445736604 14.693900825438156 -7.934706445736604
S 1277.8417009197824 196.27137700370974 1277.8417009197824 223.89591055553348
z" fill="none" stroke="none" style="animation-play-state:paused" ></path>


<circle cx="0" cy="0" r="1.7231421946987333" fill="#ffffff" transform="translate(1267.7540283203125 233.67987060546875)" style="animation-play-state:paused" ></circle>
<path id="path84" d="M 139.48267253013975 356.07089695213347
c 0 20.935334603613796 -5.122475488118268 6.013340790399708 -11.135816278517975 6.013340790399708
S 117.2110399731038 377.00623155574726 117.2110399731038 356.07089695213347
s 5.122475488118268 -6.013340790399708 11.135816278517975 -6.013340790399708
S 139.48267253013975 335.13556234851967 139.48267253013975 356.07089695213347
z" fill="none" stroke="none" style="animation-play-state:paused" ></path>


<circle cx="0" cy="0" r="1.1778830878042155" fill="#f0f0f0" transform="translate(123.42613983154297 347.51629638671875)" style="animation-play-state:paused" ></circle>
<path id="path85" d="M 1727.4414975208597 19.461689393802118
c 0 33.463736963023656 -8.187935639888765 9.611924446825943 -17.79986008671471 9.611924446825943
S 1691.8417773474303 52.925426356825774 1691.8417773474303 19.461689393802118
s 8.187935639888765 -9.611924446825943 17.79986008671471 -9.611924446825943
S 1727.4414975208597 -14.002047569221538 1727.4414975208597 19.461689393802118
z" fill="none" stroke="none" style="animation-play-state:paused" ></path>


<circle cx="0" cy="0" r="1.4183887263157344" fill="#e7e7e7" transform="translate(1727.238037109375 11.609130859375)" style="animation-play-state:paused" ></circle>
<path id="path86" d="M 845.7288357988066 449.8199153384007
c 0 20.11999818579863 -4.92297827950392 5.77914841506982 -10.702126694573739 5.77914841506982
S 824.3245824096591 469.9399135241993 824.3245824096591 449.8199153384007
s 4.92297827950392 -5.77914841506982 10.702126694573739 -5.77914841506982
S 845.7288357988066 429.69991715260204 845.7288357988066 449.8199153384007
z" fill="none" stroke="none" style="animation-play-state:paused" ></path>


<circle cx="0" cy="0" r="1.8934526192156758" fill="#e7e7e7" transform="translate(824.3573608398438 452.45367431640625)" style="animation-play-state:paused" ></circle>
<path id="path87" d="M 343.46477426309906 24.88213729396319
c 0 22.385671501154075 -5.477345154537699 6.429926920544255 -11.907272075081954 6.429926920544255
S 319.65023011293516 47.26780879511726 319.65023011293516 24.88213729396319
s 5.477345154537699 -6.429926920544255 11.907272075081954 -6.429926920544255
S 343.46477426309906 2.496465792809115 343.46477426309906 24.88213729396319
z" fill="none" stroke="none" style="animation-play-state:paused" ></path>


<circle cx="0" cy="0" r="1.5910601997530711" fill="#f0f0f0" transform="translate(319.6512145996094 24.38701629638672)" style="animation-play-state:paused" ></circle>
<path id="path88" d="M 190.68070214038244 39.89747682473475
c 0 35.686656984873544 -8.731841602681824 10.250422750974316 -18.98226435365614 10.250422750974316
S 152.71617343307014 75.58413380960829 152.71617343307014 39.89747682473475
s 8.731841602681824 -10.250422750974316 18.98226435365614 -10.250422750974316
S 190.68070214038244 4.210819839861209 190.68070214038244 39.89747682473475
z" fill="none" stroke="none" style="animation-play-state:paused" ></path>


<circle cx="0" cy="0" r="1.90031154474572" fill="#f0f0f0" transform="translate(190.64544677734375 36.20075607299805)" style="animation-play-state:paused" ></circle>
<path id="path89" d="M 761.6446566794348 88.64730109393734
c 0 37.49781524143757 -9.174997346309192 10.770649058710791 -19.945646405019982 10.770649058710791
S 721.7533638693949 126.14511633537492 721.7533638693949 88.64730109393734
s 9.174997346309192 -10.770649058710791 19.945646405019982 -10.770649058710791
S 761.6446566794348 51.14948585249977 761.6446566794348 88.64730109393734
z" fill="none" stroke="none" style="animation-play-state:paused" ></path>


<circle cx="0" cy="0" r="1.839528959710198" fill="#e7e7e7" transform="translate(746.7986450195312 76.14456939697266)" style="animation-play-state:paused" ></circle>
<path id="path90" d="M 707.1390110738377 656.9610655407599
c 0 37.18484525719052 -9.098419584206189 10.680753424937702 -19.77917300914389 10.680753424937702
S 667.58066505555 694.1459107979505 667.58066505555 656.9610655407599
s 9.098419584206189 -10.680753424937702 19.77917300914389 -10.680753424937702
S 707.1390110738377 619.7762202835694 707.1390110738377 656.9610655407599
z" fill="none" stroke="none" style="animation-play-state:paused" ></path>


<circle cx="0" cy="0" r="1.0532285139485456" fill="#f8f8f8" transform="translate(670.5234375 676.4110717773438)" style="animation-play-state:paused" ></circle>
<path id="path91" d="M 1069.9430799824534 642.7850423094926
c 0 20.589118854398322 -5.037763123948525 5.9138958411569655 -10.95165896510549 5.9138958411569655
S 1048.0397620522424 663.3741611638909 1048.0397620522424 642.7850423094926
s 5.037763123948525 -5.9138958411569655 10.95165896510549 -5.9138958411569655
S 1069.9430799824534 622.1959234550943 1069.9430799824534 642.7850423094926
z" fill="none" stroke="none" style="animation-play-state:paused" ></path>


<circle cx="0" cy="0" r="1.9436006893135975" fill="#ebebeb" transform="translate(1064.4912109375 633.8010864257812)" style="animation-play-state:paused" ></circle>
<path id="path92" d="M 769.7901412241658 766.8798666683697
c 0 24.640454664519513 -6.029047417914349 7.077577403638584 -13.106624821552932 7.077577403638584
S 743.57689158106 791.5203213328892 743.57689158106 766.8798666683697
s 6.029047417914349 -7.077577403638584 13.106624821552932 -7.077577403638584
S 769.7901412241658 742.2394120038501 769.7901412241658 766.8798666683697
z" fill="none" stroke="none" style="animation-play-state:paused" ></path>


<circle cx="0" cy="0" r="1.4984600300406363" fill="#ebebeb" transform="translate(761.5621337890625 776.1922607421875)" style="animation-play-state:paused" ></circle>
<path id="path93" d="M 537.038291841912 1050.8703667889863
c 0 31.003333775658806 -7.585922094044175 8.90521289300838 -16.491134987052554 8.90521289300838
S 504.056021867807 1081.873700564645 504.056021867807 1050.8703667889863
s 7.585922094044175 -8.90521289300838 16.491134987052554 -8.90521289300838
S 537.038291841912 1019.8670330133275 537.038291841912 1050.8703667889863
z" fill="none" stroke="none" style="animation-play-state:paused" ></path>


<circle cx="0" cy="0" r="1.249384852635494" fill="#e7e7e7" transform="translate(536.6338500976562 1040.9891357421875)" style="animation-play-state:paused" ></circle>
<path id="path94" d="M 1796.6872484109606 653.480056526682
c 0 27.338888261140163 -6.68930244687472 7.852659394157281 -14.541961841032 7.852659394157281
S 1767.6033247288967 680.8189447878221 1767.6033247288967 653.480056526682
s 6.68930244687472 -7.852659394157281 14.541961841032 -7.852659394157281
S 1796.6872484109606 626.1411682655419 1796.6872484109606 653.480056526682
z" fill="none" stroke="none" style="animation-play-state:paused" ></path>


<circle cx="0" cy="0" r="1.9350833537236807" fill="#f0f0f0" transform="translate(1777.7510986328125 663.0459594726562)" style="animation-play-state:paused" ></circle>
<path id="path95" d="M 1275.9143985272328 513.0490339703016
c 0 32.783120779234864 -8.021401892791507 9.416428308929163 -17.43783020172067 9.416428308929163
S 1241.0387381237913 545.8321547495365 1241.0387381237913 513.0490339703016
s 8.021401892791507 -9.416428308929163 17.43783020172067 -9.416428308929163
S 1275.9143985272328 480.2659131910667 1275.9143985272328 513.0490339703016
z" fill="none" stroke="none" style="animation-play-state:paused" ></path>


<circle cx="0" cy="0" r="1.9726342022675836" fill="#ffffff" transform="translate(1247.392578125 496.8136291503906)" style="animation-play-state:paused" ></circle>
<path id="path96" d="M 1123.0823336671428 247.627367385655
c 0 22.16957211022381 -5.4244697716505055 6.367855818894073 -11.792325590544579 6.367855818894073
S 1099.4976824860537 269.7969394958788 1099.4976824860537 247.627367385655
s 5.4244697716505055 -6.367855818894073 11.792325590544579 -6.367855818894073
S 1123.0823336671428 225.45779527543118 1123.0823336671428 247.627367385655
z" fill="none" stroke="none" style="animation-play-state:paused" ></path>


<circle cx="0" cy="0" r="1.704190866537379" fill="#ffffff" transform="translate(1099.5289306640625 244.9236602783203)" style="animation-play-state:paused" ></circle>
<path id="path97" d="M 1308.7924130637575 969.8064741675537
c 0 33.31116841494891 -8.150605037700263 9.568101565995963 -17.718706603696226 9.568101565995963
S 1273.3549998563649 1003.1176425825026 1273.3549998563649 969.8064741675537
s 8.150605037700263 -9.568101565995963 17.718706603696226 -9.568101565995963
S 1308.7924130637575 936.4953057526047 1308.7924130637575 969.8064741675537
z" fill="none" stroke="none" style="animation-play-state:paused" ></path>


<circle cx="0" cy="0" r="1.6146754882408205" fill="#f8f8f8" transform="translate(1308.7901611328125 969.233642578125)" style="animation-play-state:paused" ></circle>
<path id="path98" d="M 298.6401066676831 3.102705451922439
c 0 23.027592621314902 -5.634410960534497 6.614308518888324 -12.248719479422821 6.614308518888324
S 274.1426677088374 26.13029807323734 274.1426677088374 3.102705451922439
s 5.634410960534497 -6.614308518888324 12.248719479422821 -6.614308518888324
S 298.6401066676831 -19.924887169392463 298.6401066676831 3.102705451922439
z" fill="none" stroke="none" style="animation-play-state:paused" ></path>


<circle cx="0" cy="0" r="1.593286996988978" fill="#f0f0f0" transform="translate(296.11016845703125 -9.180830955505371)" style="animation-play-state:paused" ></circle>
<path id="path99" d="M 1175.0113194316182 886.2211688205405
c 0 32.78043662510182 -8.020745131673849 9.415657328486693 -17.436402460160544 9.415657328486693
S 1140.1385145112972 919.0016054456423 1140.1385145112972 886.2211688205405
s 8.020745131673849 -9.415657328486693 17.436402460160544 -9.415657328486693
S 1175.0113194316182 853.4407321954386 1175.0113194316182 886.2211688205405
z" fill="none" stroke="none" style="animation-play-state:paused" ></path>


<circle cx="0" cy="0" r="1.2860329206750196" fill="#f8f8f8" transform="translate(1140.2158203125 891.292236328125)" style="animation-play-state:paused" ></circle></g></svg>