<!-- Generated by IcoMoon.io -->
<svg version="1.1" xmlns="http://www.w3.org/2000/svg" width="4827" height="1024" viewBox="0 0 4827 1024">
<title></title>
<g id="icomoon-ignore">
</g>
<path fill="#f5f5f5" d="M625.953 598.667l-97.108 324.258c-12.146 40.555 10.882 83.278 51.436 95.427 40.555 12.146 83.278-10.882 95.427-51.436l102.756-342.177c-51.449-3.928-102.738-12.536-152.512-26.072z"></path>
<path fill="#f5f5f5" d="M364.657 474.232l-236.312 239.154c-30.959 31.345-30.676 81.876 0.632 112.872 31.302 31.002 81.782 30.737 112.758-0.591l266.031-269.244c-50.39-22.476-98.33-50.027-143.108-82.192z"></path>
<path fill="#f5f5f5" d="M1058.008 599.424l97.108 324.258c12.146 40.555-10.882 83.278-51.436 95.427-40.555 12.146-83.278-10.882-95.427-51.436l-102.756-342.177c51.449-3.928 102.738-12.536 152.512-26.072z"></path>
<path fill="#f5f5f5" d="M1319.304 474.989l236.312 239.154c30.959 31.345 30.676 81.876-0.632 112.872-31.302 31.002-81.782 30.737-112.758-0.591l-266.031-269.244c50.39-22.476 98.33-50.027 143.108-82.192z"></path>
<path fill="#f5f5f5" d="M3772.3 597.91l-97.108 324.258c-12.146 40.555 10.882 83.278 51.436 95.427 40.555 12.146 83.278-10.882 95.427-51.436l102.756-342.177c-51.449-3.928-102.738-12.536-152.512-26.072z"></path>
<path fill="#f5f5f5" d="M3511.005 473.475l-236.312 239.154c-30.959 31.345-30.676 81.876 0.632 112.872 31.302 31.002 81.782 30.737 112.758-0.591l266.031-269.244c-50.39-22.476-98.33-50.027-143.108-82.192z"></path>
<path fill="#f5f5f5" d="M4204.356 598.667l97.108 324.258c12.146 40.555-10.882 83.278-51.436 95.427-40.555 12.146-83.278-10.882-95.427-51.436l-102.756-342.177c51.449-3.928 102.738-12.536 152.512-26.072z"></path>
<path fill="#f5f5f5" d="M4465.651 474.232l236.312 239.154c30.959 31.345 30.676 81.876-0.632 112.872-31.302 31.002-81.782 30.737-112.758-0.591l-266.031-269.244c50.39-22.476 98.33-50.027 143.108-82.192z"></path>
<path fill="none" stroke="#f5f5f5" stroke-linejoin="miter" stroke-linecap="round" stroke-miterlimit="10" stroke-width="160.9824" d="M3226.838 80.491c119.598 307.199 414.067 521.173 758.844 521.656h0.061c0.329 0 0.719 0.001 1.109 0.001 344.5 0 638.949-213.151 757.319-514.096l1.905-5.499"></path>
<path fill="none" stroke="#f5f5f5" stroke-linejoin="miter" stroke-linecap="round" stroke-miterlimit="10" stroke-width="160.9824" d="M80.491 81.248c119.598 307.199 414.067 521.173 758.844 521.656h0.061c0.329 0 0.719 0.001 1.109 0.001 344.5 0 638.949-213.151 757.319-514.096l1.905-5.499"></path>
</svg>
