<?xml version="1.0" encoding="UTF-8" standalone="no"?>
<svg
   version="1.1"
   width="1637.2281"
   height="693.20911"
   viewBox="0 0 2035.0878 2030.8861"
   id="svg35"
   sodipodi:docname="relaxing-clock-logo-transparent-smile.svg"
   inkscape:version="1.1.2 (0a00cf5339, 2022-02-04)"
   xmlns:inkscape="http://www.inkscape.org/namespaces/inkscape"
   xmlns:sodipodi="http://sodipodi.sourceforge.net/DTD/sodipodi-0.dtd"
   xmlns="http://www.w3.org/2000/svg"
   xmlns:svg="http://www.w3.org/2000/svg"
   xmlns:bx="https://boxy-svg.com">
  <sodipodi:namedview
     id="namedview37"
     pagecolor="#ffffff"
     bordercolor="#666666"
     borderopacity="1.0"
     inkscape:pageshadow="2"
     inkscape:pageopacity="0.0"
     inkscape:pagecheckerboard="0"
     showgrid="false"
     inkscape:snap-bbox="true"
     inkscape:snap-page="true"
     inkscape:snap-grids="false"
     inkscape:zoom="0.22627417"
     inkscape:cx="1014.2563"
     inkscape:cy="620.92814"
     inkscape:window-width="1920"
     inkscape:window-height="1011"
     inkscape:window-x="0"
     inkscape:window-y="32"
     inkscape:window-maximized="1"
     inkscape:current-layer="svg35" />
  <defs
     id="defs2">
    <bx:guide
       x="-2085.27"
       y="-3192.025"
       angle="0" />
  </defs>
  <title
     id="title4" />
  <g
     id="icomoon-ignore"
     transform="translate(-4672.5168,-484.311)" />
  <path
     d="m -271.15117,847.88879 -70.01648,233.79541 c -8.75747,29.2408 7.8461,60.0449 37.08621,68.8044 29.24083,8.7575 60.04482,-7.846 68.80445,-37.0862 l 74.08879,-246.71526 c -37.09559,-2.83216 -74.07581,-9.03867 -109.96369,-18.79835 z"
     style="stroke-width:0.721017;paint-order:stroke"
     fill="#f5f5f5"
     id="path7" />
  <path
     d="m -459.54993,758.16909 -170.38482,172.43406 c -22.322,22.60022 -22.1179,59.03397 0.4556,81.38255 22.5693,22.353 58.96621,22.1619 81.30042,-0.4261 l 191.81277,-194.12944 c -36.33203,-16.20557 -70.89757,-36.0703 -103.18325,-59.26179 z"
     style="stroke-width:0.721017;paint-order:stroke"
     fill="#f5f5f5"
     id="path9" />
  <path
     d="m 40.36767,848.4346 70.01649,233.7954 c 8.75746,29.2409 -7.84611,60.0448 -37.08622,68.8045 -29.24083,8.7574 -60.04483,-7.8462 -68.80445,-37.0862 L -69.5953,867.23294 c 37.09558,-2.83215 74.0758,-9.03866 109.96369,-18.79834 z"
     style="stroke-width:0.721017;paint-order:stroke"
     fill="#f5f5f5"
     id="path11" />
  <path
     d="M 228.76642,758.71489 399.15131,931.1489 c 22.32196,22.60031 22.11791,59.03398 -0.45568,81.3826 -22.56927,22.353 -58.96618,22.1619 -81.3004,-0.4261 L 125.58246,817.97597 c 36.33203,-16.20556 70.89756,-36.07029 103.18324,-59.2618 z"
     style="stroke-width:0.721017;paint-order:stroke"
     fill="#f5f5f5"
     id="path13" />
  <path
     d="m 1997.4174,847.34298 -70.0165,233.79542 c -8.7575,29.2408 7.8461,60.0448 37.0862,68.8045 29.2408,8.7574 60.0448,-7.8462 68.8045,-37.0863 l 74.0888,-246.71527 c -37.0957,-2.83216 -74.0759,-9.03867 -109.9638,-18.79835 z"
     style="stroke-width:0.721017;paint-order:stroke"
     fill="#f5f5f5"
     id="path15" />
  <path
     d="m 1809.0194,757.62328 -170.3849,172.43403 c -22.322,22.6003 -22.1179,59.03397 0.4557,81.38259 22.5692,22.3529 58.9661,22.1619 81.3002,-0.4261 l 191.8128,-194.12945 c -36.332,-16.20557 -70.8975,-36.0703 -103.1832,-59.2618 z"
     style="stroke-width:0.721017;paint-order:stroke"
     fill="#f5f5f5"
     id="path17" />
  <path
     d="m 2308.9369,847.88879 70.0164,233.79541 c 8.7576,29.2408 -7.8459,60.0449 -37.0861,68.8044 -29.2408,8.7575 -60.0448,-7.846 -68.8044,-37.0862 L 2198.974,866.68714 c 37.0956,-2.83216 74.0758,-9.03867 109.9636,-18.79835 z"
     style="stroke-width:0.721017;paint-order:stroke"
     fill="#f5f5f5"
     id="path19" />
  <path
     d="m 2497.335,758.16909 170.3849,172.43406 c 22.3218,22.60022 22.1179,59.03397 -0.4557,81.38255 -22.5692,22.353 -58.9662,22.1619 -81.3005,-0.4261 L 2394.1511,817.43016 c 36.332,-16.20557 70.8975,-36.0703 103.1832,-59.26179 z"
     style="stroke-width:0.721017;paint-order:stroke"
     fill="#f5f5f5"
     id="path21" />
  <path
     stroke-linejoin="miter"
     stroke-linecap="round"
     stroke-miterlimit="10"
     d="m 1604.1302,474.27528 c 86.2322,221.49559 298.5493,375.7744 547.1392,376.12264 h 0.044 c 0.2372,0 0.5184,7.3e-4 0.7996,7.3e-4 248.3902,0 460.6929,-153.68542 546.0396,-370.67176 l 1.3736,-3.96488"
     stroke="#f5f5f5"
     style="stroke-width:94.4398px;paint-order:stroke"
     fill="none"
     id="path23" />
  <path
     stroke-linejoin="miter"
     stroke-linecap="round"
     stroke-miterlimit="10"
     d="m -664.43835,474.82109 c 86.23216,221.49558 298.5492,375.77439 547.13915,376.12265 h 0.0439 c 0.23722,0 0.51841,7.2e-4 0.79961,7.2e-4 248.39022,0 460.69285,-153.68542 546.03959,-370.67177 l 1.37353,-3.96487"
     stroke="#f5f5f5"
     style="stroke-width:94.4398px;paint-order:stroke"
     fill="none"
     id="path25" />
  <path
     stroke-linejoin="miter"
     stroke-linecap="round"
     stroke-miterlimit="10"
     d="m 561.63435,1259.9366 c 71.87046,175.9297 248.82626,298.4691 456.01655,298.7463 h 0.036 0.6675 c 207.0193,0 383.9654,-122.0693 455.0989,-294.4156 v 0"
     stroke="#f5f5f5"
     style="stroke-width:90.2956px;paint-order:stroke"
     fill="none"
     id="path29"
     sodipodi:nodetypes="cscscc" />
</svg>
