<?xml version="1.0" encoding="UTF-8" standalone="no"?>
<svg
   version="1.1"
   width="1637.2281"
   height="693.20911"
   viewBox="0 0 2035.0878 2030.8861"
   id="svg35"
   sodipodi:docname="relaxing-clock-logo-transparent-smile.svg"
   inkscape:version="1.1.1 (3bf5ae0d25, 2021-09-20)"
   xmlns:inkscape="http://www.inkscape.org/namespaces/inkscape"
   xmlns:sodipodi="http://sodipodi.sourceforge.net/DTD/sodipodi-0.dtd"
   xmlns="http://www.w3.org/2000/svg"
   xmlns:svg="http://www.w3.org/2000/svg"
   xmlns:bx="https://boxy-svg.com">
  <sodipodi:namedview
     id="namedview37"
     pagecolor="#ffffff"
     bordercolor="#666666"
     borderopacity="1.0"
     inkscape:pageshadow="2"
     inkscape:pageopacity="0.0"
     inkscape:pagecheckerboard="0"
     showgrid="false"
     inkscape:snap-bbox="true"
     inkscape:snap-page="true"
     inkscape:snap-grids="false"
     inkscape:zoom="0.071006837"
     inkscape:cx="4915.0197"
     inkscape:cy="3436.2888"
     inkscape:window-width="1920"
     inkscape:window-height="1016"
     inkscape:window-x="0"
     inkscape:window-y="27"
     inkscape:window-maximized="1"
     inkscape:current-layer="svg35" />
  <defs
     id="defs2">
    <bx:guide
       x="-2085.27"
       y="-3192.025"
       angle="0" />
  </defs>
  <title
     id="title4" />
  <g
     id="icomoon-ignore"
     transform="translate(-4672.5168,-484.311)" />
  <path
     d="m -769.78661,583.667 -97.108,324.258 c -12.146,40.555 10.882,83.278 51.436,95.427 40.555,12.146 83.278,-10.882 95.427,-51.436 l 102.756,-342.177 c -51.449,-3.928 -102.738,-12.536 -152.512,-26.072 z"
     style="paint-order:stroke"
     fill="#f5f5f5"
     id="path7" />
  <path
     d="m -1031.0826,459.232 -236.312,239.154 c -30.959,31.345 -30.676,81.876 0.632,112.872 31.302,31.002 81.782,30.737 112.758,-0.591 l 266.03099,-269.244 c -50.39,-22.476 -98.33,-50.027 -143.10799,-82.192 z"
     style="paint-order:stroke"
     fill="#f5f5f5"
     id="path9" />
  <path
     d="m -337.73161,584.424 97.108,324.258 c 12.146,40.555 -10.882,83.278 -51.436,95.427 -40.555,12.146 -83.278,-10.882 -95.427,-51.436 l -102.756,-342.177 c 51.449,-3.928 102.738,-12.536 152.512,-26.072 z"
     style="paint-order:stroke"
     fill="#f5f5f5"
     id="path11" />
  <path
     d="m -76.43561,459.989 236.312,239.154 c 30.959,31.345 30.676,81.876 -0.632,112.872 -31.302,31.002 -81.782,30.737 -112.758,-0.591 l -266.031,-269.244 c 50.39,-22.476 98.33,-50.027 143.108,-82.192 z"
     style="paint-order:stroke"
     fill="#f5f5f5"
     id="path13" />
  <path
     d="m 2376.5604,582.91 -97.108,324.258 c -12.146,40.555 10.882,83.278 51.436,95.427 40.555,12.146 83.278,-10.882 95.427,-51.436 l 102.756,-342.177 c -51.449,-3.928 -102.738,-12.536 -152.512,-26.072 z"
     style="paint-order:stroke"
     fill="#f5f5f5"
     id="path15" />
  <path
     d="m 2115.2654,458.475 -236.312,239.154 c -30.959,31.345 -30.676,81.876 0.632,112.872 31.302,31.002 81.782,30.737 112.758,-0.591 l 266.031,-269.244 c -50.39,-22.476 -98.33,-50.027 -143.108,-82.192 z"
     style="paint-order:stroke"
     fill="#f5f5f5"
     id="path17" />
  <path
     d="m 2808.6164,583.667 97.108,324.258 c 12.146,40.555 -10.882,83.278 -51.436,95.427 -40.555,12.146 -83.278,-10.882 -95.427,-51.436 l -102.756,-342.177 c 51.449,-3.928 102.738,-12.536 152.512,-26.072 z"
     style="paint-order:stroke"
     fill="#f5f5f5"
     id="path19" />
  <path
     d="m 3069.9114,459.232 236.312,239.154 c 30.959,31.345 30.676,81.876 -0.632,112.872 -31.302,31.002 -81.782,30.737 -112.758,-0.591 l -266.031,-269.244 c 50.39,-22.476 98.33,-50.027 143.108,-82.192 z"
     style="paint-order:stroke"
     fill="#f5f5f5"
     id="path21" />
  <path
     stroke-linejoin="miter"
     stroke-linecap="round"
     stroke-miterlimit="10"
     d="M 1831.0984,65.490997 C 1950.6964,372.69 2245.1654,586.664 2589.9424,587.147 h 0.061 c 0.329,0 0.719,10e-4 1.109,10e-4 344.5,0 638.949,-213.151 757.319,-514.096003 l 1.905,-5.499"
     stroke="#f5f5f5"
     style="stroke-width:130.982px;paint-order:stroke"
     fill="none"
     id="path23" />
  <path
     stroke-linejoin="miter"
     stroke-linecap="round"
     stroke-miterlimit="10"
     d="M -1315.2486,66.247997 C -1195.6506,373.447 -901.18161,587.421 -556.40461,587.904 h 0.061 c 0.329,0 0.719,10e-4 1.109,10e-4 344.5,0 638.949,-213.151 757.319,-514.096003 l 1.905,-5.499"
     stroke="#f5f5f5"
     style="stroke-width:130.982px;paint-order:stroke"
     fill="none"
     id="path25" />
  <path
     stroke-linejoin="miter"
     stroke-linecap="round"
     stroke-miterlimit="10"
     d="m 360.55639,1535.776 c 103.473,253.289 358.239,429.711 656.53401,430.11 h 0.052 c 0.285,0 0.622,0 0.961,0 298.049,0 552.801,-175.745 655.213,-423.875 l 1.649,-4.534"
     stroke="#f5f5f5"
     style="stroke-width:130px;paint-order:stroke"
     fill="none"
     id="path29" />
</svg>
