<svg xmlns="http://www.w3.org/2000/svg" version="1.1" xmlns:xlink="http://www.w3.org/1999/xlink" xmlns:svgjs="http://svgjs.com/svgjs" width="512" height="512" x="0" y="0" viewBox="0 0 511.998 511.998" style="enable-background:new 0 0 512 512" xml:space="preserve" class=""><g>
<g xmlns="http://www.w3.org/2000/svg">
	<g>
		<path d="M415.999,228.998c-5.52,0-10,4.48-10,10s4.48,10,10,10c5.52,0,10-4.48,10-10S421.519,228.998,415.999,228.998z" fill="#000000" data-original="#000000" style="" class=""></path>
	</g>
</g>
<g xmlns="http://www.w3.org/2000/svg">
	<g>
		<path d="M381.318,138.305c4.273-2.201,9.252-4.323,15.285-6.271c3.707-1.197,6.381-4.438,6.854-8.305    c0.472-3.867-1.345-7.656-4.655-9.709c-38.957-24.164-82.654-20.067-111.675-12.772c2.338-21.06,8.114-42.657,15.709-57.831    c7.394-14.801,1.376-32.858-13.414-40.253c-14.789-7.395-32.852-1.382-40.257,13.415c-11.855,23.727-19.947,54.885-22.395,85.449    c-29.291-7.858-74.468-12.949-114.681,11.993c-3.311,2.053-5.128,5.842-4.656,9.709c0.473,3.867,3.146,7.108,6.854,8.305    c6.29,2.031,11.454,4.263,15.876,6.583C67.79,174.475,25.999,238.524,25.999,308.998c0,112.314,105.013,203,230,203    c126.835,0,230-92.322,230-203C485.999,240.296,445.435,174.98,381.318,138.305z M232.864,124.761    c6.374,2.153,13.023-2.48,13.201-9.208c0.83-31.285,8.872-65.785,20.986-90.03c2.468-4.932,8.49-6.94,13.426-4.471    c4.929,2.465,6.933,8.488,4.469,13.42c-12.711,25.397-18.066,57.996-18.842,80.034c-0.243,6.949,6.526,12.035,13.133,9.846    c20.185-6.673,56.046-14.584,90.217-2.383c-21.063,11.621-26.568,23.69-46.982,27.895c-4.266,0.878-7.472,4.417-7.928,8.748    c-0.455,4.331,1.944,8.459,5.934,10.207c18.237,7.987,28.387,22.987,33.91,35.392c-9.629-3.431-21.467-5.954-33.531-4.333    c-17.937,2.414-27.088-4.892-28.047-5.71c-3.03-3.078-7.575-3.74-11.451-1.811c-3.9,1.939-5.968,6.308-5.301,10.611    c0.033,0.218,2.854,20.552-20.607,39.067c-22.594-17.851-20.793-37.554-20.609-39.118c0.742-4.247-1.344-8.375-5.148-10.414    c-3.817-2.047-8.543-1.279-11.67,1.722c-0.086,0.083-9.436,8.146-27.982,5.652c-12.059-1.617-23.896,0.908-33.527,4.339    c5.525-12.417,15.673-27.414,33.899-35.398c3.989-1.748,6.389-5.876,5.933-10.208c-0.457-4.332-3.665-7.869-7.931-8.747    c-20.135-4.141-26.138-16.4-46.992-27.897C176.053,109.579,212.419,117.843,232.864,124.761z M255.999,491.998    c-115.794,0-210-82.093-210-183c0-64.317,40.137-125.621,102.759-157.757c0.028,0.022,0.057,0.045,0.085,0.067    c4.603,3.624,9.282,7.308,14.947,10.52c-28.622,23.284-33.256,59.599-33.334,60.257c-1.012,8.662,8.99,14.624,16.093,9.079    c3.494-2.254,22.616-13.913,40.826-11.465c12.064,1.622,21.672,0.103,28.838-2.284c2.889,12.773,11.165,30.37,33.72,45.284    c3.343,2.212,7.688,2.212,11.032-0.001c22.548-14.914,30.821-32.51,33.709-45.283c7.166,2.386,16.773,3.905,28.847,2.284    c19.72-2.649,40.498,11.231,41.383,11.831c0.005,0.003,0.01,0.006,0.015,0.009c7.221,4.891,16.884-1.324,15.458-9.925    c-0.648-4.473-6.323-37.89-33.272-59.79c5.672-3.214,10.356-6.902,14.963-10.529c0.165-0.13,0.336-0.263,0.501-0.393    c63.029,32.058,103.43,93.498,103.43,158.096C465.999,409.905,371.793,491.998,255.999,491.998z" fill="#000000" data-original="#000000" style="" class=""></path>
	</g>
</g>
<g xmlns="http://www.w3.org/2000/svg">
	<g>
		<path d="M441.153,273.224c-1.46-5.326-6.961-8.461-12.289-7c-5.326,1.46-8.46,6.962-7,12.288    c2.744,10.005,4.135,20.262,4.135,30.486c0,37.789-18.386,75.672-49.183,101.338c-4.242,3.536-4.815,9.842-1.279,14.084    c3.541,4.25,9.847,4.811,14.084,1.28c35.302-29.421,56.378-73.048,56.378-116.702    C445.999,296.988,444.368,284.952,441.153,273.224z" fill="#000000" data-original="#000000" style="" class=""></path>
	</g>
</g>
<g xmlns="http://www.w3.org/2000/svg">
</g>
<g xmlns="http://www.w3.org/2000/svg">
</g>
<g xmlns="http://www.w3.org/2000/svg">
</g>
<g xmlns="http://www.w3.org/2000/svg">
</g>
<g xmlns="http://www.w3.org/2000/svg">
</g>
<g xmlns="http://www.w3.org/2000/svg">
</g>
<g xmlns="http://www.w3.org/2000/svg">
</g>
<g xmlns="http://www.w3.org/2000/svg">
</g>
<g xmlns="http://www.w3.org/2000/svg">
</g>
<g xmlns="http://www.w3.org/2000/svg">
</g>
<g xmlns="http://www.w3.org/2000/svg">
</g>
<g xmlns="http://www.w3.org/2000/svg">
</g>
<g xmlns="http://www.w3.org/2000/svg">
</g>
<g xmlns="http://www.w3.org/2000/svg">
</g>
<g xmlns="http://www.w3.org/2000/svg">
</g>
</g></svg>
